<svg width="44" height="44" viewBox="0 0 44 44" fill="none" xmlns="http://www.w3.org/2000/svg">
<path d="M22 0.203125C9.95828 0.203125 0.203125 9.95969 0.203125 22C0.203125 34.0403 9.95969 43.7969 22 43.7969C34.0417 43.7969 43.7969 34.0403 43.7969 22C43.7969 9.95969 34.0403 0.203125 22 0.203125ZM32.7058 15.1361L29.1283 31.9942C28.8639 33.1895 28.1523 33.4792 27.1595 32.9167L21.7103 28.9005L19.082 31.4317C18.7923 31.7214 18.5462 31.9675 17.9837 31.9675L18.3705 26.4212L28.4688 17.2975C28.9089 16.9108 28.3717 16.6914 27.7909 17.0781L15.3105 24.9348L9.93156 23.2558C8.76297 22.8873 8.73625 22.0872 10.1777 21.5247L31.1927 13.4205C32.1686 13.0689 33.0208 13.6581 32.7044 15.1347L32.7058 15.1361Z" fill="#022A58"/>
</svg>
