<svg width="46" height="46" viewBox="0 0 46 46" fill="none" xmlns="http://www.w3.org/2000/svg">
<path fill-rule="evenodd" clip-rule="evenodd" d="M0.5 23C0.5 10.5736 10.5736 0.5 23 0.5C35.4264 0.5 45.5 10.5736 45.5 23C45.5 35.4264 35.4264 45.5 23 45.5C10.5736 45.5 0.5 35.4264 0.5 23ZM24.177 30.3838C24.177 30.3838 24.6102 30.3366 24.832 30.1027C25.035 29.8884 25.028 29.4839 25.028 29.4839C25.028 29.4839 25.001 27.5954 25.8943 27.3165C26.7747 27.0423 27.9051 29.1429 29.1048 29.9506C30.011 30.5613 30.6988 30.4276 30.6988 30.4276L33.9046 30.3838C33.9046 30.3838 35.5809 30.2824 34.7862 28.9885C34.7204 28.8824 34.3225 28.031 32.4033 26.2818C30.3925 24.451 30.6625 24.747 33.0829 21.5796C34.5573 19.6507 35.1465 18.4731 34.9622 17.9697C34.7874 17.488 33.7027 17.6158 33.7027 17.6158L30.0943 17.6378C30.0943 17.6378 29.8267 17.6021 29.6283 17.7184C29.4346 17.8325 29.309 18.0987 29.309 18.0987C29.309 18.0987 28.7385 19.5908 27.9767 20.8605C26.3698 23.5384 25.7277 23.6801 25.4647 23.5142C24.8532 23.1259 25.0057 21.9564 25.0057 21.1256C25.0057 18.5296 25.4072 17.4477 24.2251 17.1676C23.8331 17.0743 23.5443 17.0132 22.5406 17.0029C21.253 16.9902 20.1636 17.0075 19.5462 17.3037C19.1353 17.5006 18.8184 17.9408 19.0121 17.9662C19.2504 17.9972 19.7904 18.1091 20.0768 18.4916C20.4465 18.9859 20.4336 20.0943 20.4336 20.0943C20.4336 20.0943 20.6461 23.1501 19.9371 23.5291C19.4511 23.7896 18.7843 23.2584 17.3511 20.8283C16.6175 19.5839 16.0634 18.2082 16.0634 18.2082C16.0634 18.2082 15.9566 17.9512 15.7652 17.8129C15.534 17.6458 15.2112 17.594 15.2112 17.594L11.7824 17.6158C11.7824 17.6158 11.2671 17.6297 11.0781 17.8497C10.9103 18.0445 11.0652 18.4489 11.0652 18.4489C11.0652 18.4489 13.7498 24.6146 16.79 27.7222C19.5778 30.5705 22.7426 30.3838 22.7426 30.3838H24.177Z" fill="#022A58"/>
</svg>
