<svg width="46" height="46" viewBox="0 0 46 46" fill="none" xmlns="http://www.w3.org/2000/svg">
<g clip-path="url(#clip0_1357_456)">
<circle cx="23" cy="23" r="22.5" fill="white"/>
<path fill-rule="evenodd" clip-rule="evenodd" d="M23 45.5C10.5736 45.5 0.5 35.4264 0.5 23C0.5 10.5736 10.5736 0.5 23 0.5C35.4264 0.5 45.5 10.5736 45.5 23C45.5 35.4264 35.4264 45.5 23 45.5ZM23.7417 35.518C31.1183 35.515 37.1178 29.514 37.1207 22.1389C37.1222 18.564 35.7318 15.2026 33.2058 12.6738C30.6798 10.1449 27.3206 8.75155 23.7415 8.75C16.367 8.75 10.3651 14.7516 10.3621 22.1283C10.3612 24.4864 10.9772 26.788 12.1481 28.817L10.25 35.75L17.3425 33.8895C19.2967 34.9554 21.4969 35.5172 23.7361 35.518H23.7417Z" fill="#022A58"/>
<path fill-rule="evenodd" clip-rule="evenodd" d="M17.6711 31.4674L13.4623 32.5715L14.5857 28.4679L14.3213 28.0471C13.2082 26.2767 12.6203 24.2304 12.6211 22.1292C12.6235 15.9979 17.6121 11.0098 23.746 11.0098C26.7162 11.0108 29.5083 12.169 31.6078 14.271C33.7073 16.3729 34.8629 19.1668 34.8618 22.1382C34.8593 28.2699 29.8708 33.2585 23.7416 33.2585H23.7371C21.7417 33.2577 19.7845 32.7216 18.0772 31.7085L17.6711 31.4674ZM30.482 25.3204C30.3984 25.181 30.1756 25.0974 29.8413 24.93C29.507 24.7626 27.8634 23.954 27.557 23.8424C27.2506 23.7308 27.0276 23.6751 26.8048 24.0096C26.582 24.3443 25.9413 25.0974 25.7463 25.3204C25.5513 25.5435 25.3562 25.5715 25.0221 25.4041C24.6878 25.2368 23.6106 24.8838 22.3337 23.7449C21.3398 22.8584 20.6689 21.7637 20.4739 21.429C20.2789 21.0944 20.4532 20.9134 20.6205 20.7467C20.7709 20.5969 20.9548 20.3562 21.122 20.1611C21.2891 19.9659 21.3448 19.8264 21.4562 19.6035C21.5677 19.3802 21.512 19.185 21.4283 19.0177C21.3448 18.8504 20.6762 17.2049 20.3977 16.5355C20.1263 15.8836 19.8507 15.972 19.6455 15.9616C19.4507 15.9519 19.2277 15.9498 19.0048 15.9498C18.782 15.9498 18.4197 16.0335 18.1133 16.3681C17.8069 16.7028 16.9433 17.5116 16.9433 19.157C16.9433 20.8025 18.1412 22.3921 18.3083 22.6153C18.4755 22.8384 20.6656 26.215 24.0191 27.663C24.8168 28.0075 25.4393 28.2132 25.925 28.3672C26.7258 28.6217 27.4546 28.5858 28.0305 28.4997C28.6729 28.4038 30.0083 27.6911 30.2871 26.9102C30.5655 26.1292 30.5655 25.4598 30.482 25.3204Z" fill="#022A58"/>
</g>
<defs>
<clipPath id="clip0_1357_456">
<rect width="45" height="45" fill="white" transform="translate(0.5 0.5)"/>
</clipPath>
</defs>
</svg>
