<svg width="177" height="38" viewBox="0 0 177 38" fill="none" xmlns="http://www.w3.org/2000/svg">
<path d="M10.6476 16.6751L15.97 21.6261M33.1748 16.2109L27.4811 21.4714M16.0155 28.6409L18.1879 30.7466C18.2341 30.7914 18.2959 30.8164 18.3602 30.8164H24.9465C25.0116 30.8164 25.0741 30.7908 25.1205 30.745L27.2515 28.6406C27.2986 28.5941 27.3251 28.5307 27.3251 28.4645V21.8395C27.3251 21.7739 27.299 21.7109 27.2526 21.6645L25.1207 19.5325C25.0742 19.4861 25.0113 19.46 24.9456 19.46H18.3198C18.2541 19.46 18.1911 19.4861 18.1447 19.5325L16.0128 21.6645C15.9663 21.7109 15.9402 21.7739 15.9402 21.8395V28.4631C15.9402 28.5301 15.9674 28.5942 16.0155 28.6409ZM2.07525 16.8597L3.69627 18.4309C3.74245 18.4757 3.80424 18.5007 3.86856 18.5007H8.84129C8.90641 18.5007 8.9689 18.4751 9.01523 18.4293L10.605 16.8594C10.6521 16.8129 10.6787 16.7495 10.6787 16.6833V11.6821C10.6787 11.6164 10.6526 11.5534 10.6061 11.507L9.01543 9.9163C8.969 9.86988 8.90604 9.8438 8.84038 9.8438H3.83827C3.77261 9.8438 3.70965 9.86988 3.66322 9.9163L2.07251 11.507C2.02608 11.5534 2 11.6164 2 11.6821V16.6819C2 16.7489 2.02715 16.813 2.07525 16.8597Z" stroke="white" stroke-width="2.15831"/>
<path d="M80.0454 33.1288H83.1514C83.2964 33.1288 83.4258 33.1857 83.5397 33.2996C83.6536 33.4135 83.7105 33.5429 83.7105 33.6878V35.2409C83.7105 35.3962 83.6536 35.5256 83.5397 35.6291L81.9867 37.1821C81.8832 37.296 81.7537 37.3529 81.5984 37.3529H77.7159C77.602 37.3529 77.4985 37.3219 77.4053 37.2598L75.0758 35.7068C75.0344 35.6757 74.9826 35.6032 74.9205 35.4893C74.8584 35.3755 74.8273 35.2926 74.8273 35.2409V30.5818C74.8273 30.4265 74.8791 30.2971 74.9826 30.1936L76.5356 28.6406C76.6495 28.5267 76.7841 28.4697 76.9394 28.4697H81.5984C81.7537 28.4697 81.8832 28.5267 81.9867 28.6406L83.5397 30.1936C83.6536 30.3075 83.7105 30.4369 83.7105 30.5818C83.7105 30.7268 83.6536 30.8614 83.5397 30.9856C83.4258 31.0995 83.2912 31.1564 83.1359 31.1564C82.991 31.1564 82.8616 31.0943 82.7477 30.9701L81.3655 29.5879H77.1724L75.9455 30.8148V34.9458L77.8868 36.2348H81.3655L82.5924 35.0079V34.2469H80.0454C79.6727 34.2469 79.4863 34.0606 79.4863 33.6878C79.4863 33.3151 79.6727 33.1288 80.0454 33.1288Z" fill="white"/>
<path d="M92.3824 33.1288C92.4445 33.1184 92.5066 33.1184 92.5687 33.1288H93.7956L95.0225 31.9019V30.8148L93.7956 29.5879H88.3756V33.1288H92.3824ZM95.1778 37.1821L92.2426 34.2469H88.3756V36.7939C88.3756 37.1666 88.1893 37.3529 87.8165 37.3529C87.4438 37.3529 87.2575 37.1666 87.2575 36.7939V29.0288C87.2575 28.8839 87.3092 28.7545 87.4128 28.6406C87.5266 28.5267 87.6612 28.4697 87.8165 28.4697H94.0286C94.1839 28.4697 94.3133 28.5267 94.4168 28.6406L95.9698 30.1936C96.0837 30.2971 96.1407 30.4265 96.1407 30.5818V32.1348C96.1407 32.2901 96.0837 32.4196 95.9698 32.5231L94.4168 34.0761C94.3133 34.19 94.1839 34.2469 94.0286 34.2469H93.8267L95.9698 36.4056C96.0837 36.5195 96.1407 36.6489 96.1407 36.7939C96.1407 36.9388 96.0837 37.0734 95.9698 37.1976C95.8559 37.3115 95.7213 37.3685 95.566 37.3685C95.4211 37.3685 95.2917 37.3064 95.1778 37.1821Z" fill="white"/>
<path d="M99.6876 30.5818C99.6876 30.4265 99.7445 30.2971 99.8584 30.1936L101.411 28.6406C101.515 28.5267 101.644 28.4697 101.8 28.4697H106.459C106.614 28.4697 106.743 28.5267 106.847 28.6406L108.4 30.1936C108.514 30.2971 108.571 30.4265 108.571 30.5818V35.2409C108.571 35.3962 108.514 35.5256 108.4 35.6291L106.847 37.1821C106.743 37.296 106.614 37.3529 106.459 37.3529H101.8C101.644 37.3529 101.515 37.296 101.411 37.1821L99.8584 35.6291C99.7445 35.5256 99.6876 35.3962 99.6876 35.2409V30.5818ZM100.806 30.8148V35.0079L102.033 36.2348H106.226L107.453 35.0079V30.8148L106.226 29.5879H102.033L100.806 30.8148Z" fill="white"/>
<path d="M113.236 29.0288V35.0079L114.463 36.2348H118.656L119.883 35.0079V29.0288C119.883 28.6561 120.069 28.4697 120.442 28.4697C120.815 28.4697 121.001 28.6561 121.001 29.0288V35.2409C121.001 35.3962 120.944 35.5256 120.83 35.6291L119.277 37.1821C119.174 37.296 119.044 37.3529 118.889 37.3529H114.23C114.074 37.3529 113.945 37.296 113.842 37.1821L112.289 35.6291C112.175 35.5256 112.118 35.3962 112.118 35.2409V29.0288C112.118 28.6561 112.304 28.4697 112.677 28.4697C113.05 28.4697 113.236 28.6561 113.236 29.0288Z" fill="white"/>
<path d="M125.666 33.1288H131.086L132.313 31.9019V30.8148L131.086 29.5879H125.666V33.1288ZM124.548 36.7939V29.0288C124.548 28.8839 124.605 28.7545 124.719 28.6406C124.833 28.5267 124.962 28.4697 125.107 28.4697H131.319C131.474 28.4697 131.604 28.5267 131.707 28.6406L133.26 30.1936C133.374 30.2971 133.431 30.4265 133.431 30.5818V32.1348C133.431 32.2901 133.374 32.4196 133.26 32.5231L131.707 34.0761C131.604 34.19 131.474 34.2469 131.319 34.2469H125.666V36.7939C125.666 37.1666 125.48 37.3529 125.107 37.3529C124.734 37.3529 124.548 37.1666 124.548 36.7939Z" fill="white"/>
<path d="M31.3004 4.45959C31.3004 4.14105 31.4172 3.87559 31.6508 3.66323L34.8362 0.477812C35.0486 0.244216 35.314 0.127417 35.6326 0.127417H45.1888C45.5074 0.127417 45.7728 0.244216 45.9852 0.477812L49.1706 3.66323C49.4042 3.87559 49.521 4.14105 49.521 4.45959V14.0158C49.521 14.3344 49.4042 14.5998 49.1706 14.8122L45.9852 17.9976C45.7728 18.2312 45.5074 18.348 45.1888 18.348H35.6326C35.314 18.348 35.0486 18.2312 34.8362 17.9976L31.6508 14.8122C31.4172 14.5998 31.3004 14.3344 31.3004 14.0158V4.45959ZM33.5939 4.9374V13.538L36.1104 16.0545H44.711L47.2275 13.538V4.9374L44.711 2.42092H36.1104L33.5939 4.9374Z" fill="white"/>
<path d="M58.7393 0.477812L65.9065 7.61315L73.0737 0.477812C73.3073 0.22298 73.5728 0.0955633 73.8701 0.0955633C74.1674 0.0955633 74.4328 0.22298 74.6664 0.477812C74.9213 0.711411 75.0487 0.976863 75.0487 1.27417C75.0487 1.57147 74.9213 1.83693 74.6664 2.07052L67.5311 9.23772L74.6664 16.4049C74.9213 16.6385 75.0487 16.904 75.0487 17.2013C75.0487 17.4986 74.9213 17.7746 74.6664 18.0295C74.4328 18.2631 74.1674 18.3799 73.8701 18.3799C73.5728 18.3799 73.3073 18.2525 73.0737 17.9976L65.9065 10.8623L58.7393 17.9976C58.5057 18.2525 58.2403 18.3799 57.943 18.3799C57.6457 18.3799 57.3696 18.2631 57.1148 18.0295C56.8812 17.7746 56.7644 17.4986 56.7644 17.2013C56.7644 16.904 56.8918 16.6385 57.1466 16.4049L64.282 9.23772L57.1466 2.07052C56.8918 1.83693 56.7644 1.57147 56.7644 1.27417C56.7644 0.976863 56.8812 0.711411 57.1148 0.477812C57.3696 0.22298 57.6457 0.0955633 57.943 0.0955633C58.2403 0.0955633 58.5057 0.22298 58.7393 0.477812Z" fill="white"/>
<path d="M92.5491 11.3082V17.2013C92.5491 17.9658 92.1668 18.348 91.4023 18.348C90.6378 18.348 90.2556 17.9658 90.2556 17.2013V11.3082L81.0497 2.07052C80.7949 1.83693 80.6675 1.57147 80.6675 1.27417C80.6675 0.976863 80.7842 0.711411 81.0178 0.477812C81.2727 0.22298 81.5487 0.0955633 81.8461 0.0955633C82.1434 0.0955633 82.4088 0.22298 82.6424 0.477812L91.4023 9.20586L100.162 0.477812C100.396 0.22298 100.661 0.0955633 100.959 0.0955633C101.256 0.0955633 101.521 0.22298 101.755 0.477812C102.01 0.711411 102.137 0.976863 102.137 1.27417C102.137 1.57147 102.01 1.83693 101.755 2.07052L92.5491 11.3082Z" fill="white"/>
<path d="M118.491 9.68368H124.862C125.159 9.68368 125.424 9.80048 125.658 10.0341C125.892 10.2677 126.008 10.5331 126.008 10.8304V14.0158C126.008 14.3344 125.892 14.5998 125.658 14.8122L122.473 17.9976C122.26 18.2312 121.995 18.348 121.676 18.348H113.713C113.479 18.348 113.267 18.2843 113.076 18.1569L108.297 14.9715C108.213 14.9078 108.106 14.7591 107.979 14.5255C107.852 14.2919 107.788 14.122 107.788 14.0158V4.45959C107.788 4.14105 107.894 3.87559 108.106 3.66323L111.292 0.477812C111.525 0.244216 111.801 0.127417 112.12 0.127417H121.676C121.995 0.127417 122.26 0.244216 122.473 0.477812L125.658 3.66323C125.892 3.89683 126.008 4.16228 126.008 4.45959C126.008 4.75689 125.892 5.03296 125.658 5.2878C125.424 5.52139 125.148 5.63819 124.83 5.63819C124.533 5.63819 124.267 5.51078 124.033 5.25594L121.198 2.42092H112.598L110.081 4.9374V13.4106L114.063 16.0545H121.198L123.715 13.538V11.9772H118.491C117.726 11.9772 117.344 11.5949 117.344 10.8304C117.344 10.0659 117.726 9.68368 118.491 9.68368Z" fill="white"/>
<path d="M135.577 6.49826H147.172C147.937 6.49826 148.319 6.88051 148.319 7.64501C148.319 8.40951 147.937 8.79176 147.172 8.79176H135.577V16.0545H150.357C151.122 16.0545 151.504 16.4368 151.504 17.2013C151.504 17.9658 151.122 18.348 150.357 18.348H134.43C134.133 18.348 133.868 18.2312 133.634 17.9976C133.4 17.764 133.284 17.4986 133.284 17.2013V1.27417C133.284 0.976863 133.4 0.711411 133.634 0.477812C133.868 0.244216 134.133 0.127417 134.43 0.127417H150.357C151.122 0.127417 151.504 0.509667 151.504 1.27417C151.504 2.03867 151.122 2.42092 150.357 2.42092H135.577V6.49826Z" fill="white"/>
<path d="M158.779 17.2013V1.27417C158.779 0.424723 159.109 0 159.767 0C160.085 0 160.404 0.159271 160.723 0.477812L174.707 14.43V1.27417C174.707 0.509667 175.089 0.127417 175.853 0.127417C176.618 0.127417 177 0.509667 177 1.27417V17.2013C177 18.0507 176.671 18.4754 176.013 18.4754C175.694 18.4754 175.375 18.3162 175.057 17.9976L161.073 4.04548V17.2013C161.073 17.9658 160.691 18.348 159.926 18.348C159.162 18.348 158.779 17.9658 158.779 17.2013Z" fill="white"/>
</svg>
