<svg width="100" height="60" viewBox="0 0 100 60" fill="none" xmlns="http://www.w3.org/2000/svg">
<g clip-path="url(#clip0_986_405)">
<path fill-rule="evenodd" clip-rule="evenodd" d="M21.647 15.4152L49.3494 1.16623L74.6754 15.401V22.4901C74.6754 22.8012 74.932 23.0533 75.2486 23.0533C75.5651 23.0533 75.8216 22.8012 75.8216 22.4901V15.2921C75.8216 14.9553 75.6382 14.6445 75.3407 14.4773L49.8278 0.137389C49.5449 -0.0215739 49.1991 -0.0279197 48.9105 0.120557L21.0129 14.4699C20.6981 14.6319 20.5007 14.9523 20.5007 15.3016V22.4901C20.5007 22.8012 20.7574 23.0533 21.0739 23.0533C21.3904 23.0533 21.647 22.8012 21.647 22.4901V15.4152ZM21.647 37.5096C21.647 37.1985 21.3904 36.9463 21.0739 36.9463C20.7574 36.9463 20.5007 37.1985 20.5007 37.5096V44.7921C20.5007 45.1412 20.698 45.4616 21.0127 45.6236L48.7081 59.8797C48.995 60.0273 49.3385 60.0221 49.6206 59.8657L75.3356 45.6175C75.6359 45.4512 75.8216 45.1387 75.8216 44.7999V37.5096C75.8216 37.1985 75.5651 36.9463 75.2486 36.9463C74.932 36.9463 74.6754 37.1985 74.6754 37.5096V44.6902L49.148 58.8344L21.647 44.6784V37.5096ZM91.1591 25.2124C90.822 25.2124 90.6535 25.4261 90.6535 25.8535V33.8677C90.6535 34.2524 90.8491 34.4448 91.2406 34.4448C91.6321 34.4448 91.8278 34.2524 91.8278 33.8677V27.248L98.9883 34.2685C99.1517 34.4288 99.3141 34.5089 99.4775 34.5089C99.8151 34.5089 99.9834 34.2951 99.9834 33.8677V25.8535C99.9834 25.4689 99.7877 25.2765 99.3963 25.2765C99.0049 25.2765 98.8092 25.4689 98.8092 25.8535V32.4733L91.6485 25.4528C91.4853 25.2925 91.3222 25.2124 91.1591 25.2124ZM22.5129 29.0432L18.843 25.4528C18.7234 25.3246 18.5875 25.2605 18.4353 25.2605C18.283 25.2605 18.0112 25.4528 18.0112 25.4528C17.8915 25.5703 17.8317 25.7039 17.8317 25.8535C17.8317 26.0031 17.9077 26.1007 18.0382 26.2183L21.681 29.8606L18.0274 33.4671C17.897 33.5846 17.8317 33.7181 17.8317 33.8677C17.8317 34.0173 17.8915 34.1563 18.0112 34.2845C18.1416 34.4021 18.283 34.4608 18.4353 34.4608C18.5875 34.4608 18.7234 34.3967 18.843 34.2685L22.5129 30.6781L26.1828 34.2685C26.3025 34.3967 26.4384 34.4608 26.5906 34.4608C26.7429 34.4608 26.8788 34.4021 26.9984 34.2845C27.1289 34.1563 27.1941 34.0173 27.1941 33.8677C27.1941 33.7181 27.1289 33.5846 26.9984 33.4671L23.3447 29.8606L26.9984 26.2543C27.1289 26.1367 27.1941 26.0031 27.1941 25.8535C27.1941 25.7039 27.1289 25.5703 26.9984 25.4528C26.8788 25.3246 26.7429 25.2605 26.5906 25.2605C26.4384 25.2605 26.3025 25.3246 26.1828 25.4528L22.5129 29.0432ZM0.0168457 27.4564C0.0168457 27.2961 0.0766462 27.1625 0.196258 27.0556L1.82733 25.4528C1.87528 25.401 2.43602 25.3606 2.83815 25.3316C3.34792 25.2948 3.60281 25.2765 2.23511 25.2765H7.12834C7.29144 25.2765 7.42736 25.3352 7.53609 25.4528L9.16717 27.0556C9.28679 27.1625 9.34659 27.2961 9.34659 27.4564V32.2649C9.34659 32.4252 9.28679 32.5588 9.16717 32.6656L7.53609 34.2685C7.42736 34.386 7.29144 34.4448 7.12834 34.4448H4.68172H2.23511C2.072 34.4448 1.93607 34.386 1.82733 34.2685L0.196258 32.6656C0.0766462 32.5588 0.0168457 32.4252 0.0168457 32.2649V27.4564ZM1.19122 27.6968V32.0245L2.47977 33.2907H6.88366L8.17222 32.0245V27.6968L6.88366 26.4305H2.47977L1.19122 27.6968ZM35.5044 40.6827H37.0948C37.1691 40.6827 37.2354 40.7114 37.2937 40.7687C37.352 40.826 37.3811 40.8911 37.3811 40.964V41.7454C37.3811 41.8236 37.352 41.8887 37.2937 41.9408L36.4985 42.7223C36.4454 42.7796 36.3792 42.8082 36.2996 42.8082H34.3117C34.2534 42.8082 34.2002 42.7925 34.1526 42.7613L32.9597 41.9799C32.9386 41.9643 32.9121 41.9278 32.8803 41.8705C32.8485 41.8132 32.8325 41.7715 32.8325 41.7454V39.4011C32.8325 39.323 32.859 39.2578 32.9121 39.2057L33.7073 38.4243C33.7656 38.367 33.8345 38.3383 33.914 38.3383H36.2996C36.3792 38.3383 36.4454 38.367 36.4985 38.4243L37.2937 39.2057C37.352 39.263 37.3811 39.3282 37.3811 39.4011C37.3811 39.4741 37.352 39.5418 37.2937 39.6043C37.2354 39.6616 37.1664 39.6902 37.0869 39.6902C37.0127 39.6902 36.9464 39.659 36.8881 39.5965L36.1804 38.901H34.0333L33.4051 39.5183V41.597L34.3991 42.2456H36.1804L36.8085 41.6282V41.2453H35.5044C35.3135 41.2453 35.2181 41.1516 35.2181 40.964C35.2181 40.7765 35.3135 40.6827 35.5044 40.6827ZM41.8215 40.6827C41.8533 40.6774 41.8851 40.6774 41.917 40.6827H42.5451L43.1733 40.0653V39.5183L42.5451 38.901H39.7699V40.6827H41.8215ZM43.2529 42.7223L41.7499 41.2453H39.7699V42.5269C39.7699 42.7145 39.6744 42.8082 39.4836 42.8082C39.2927 42.8082 39.1973 42.7145 39.1973 42.5269V38.6197C39.1973 38.5468 39.2238 38.4816 39.2768 38.4243C39.3352 38.367 39.404 38.3383 39.4836 38.3383H42.6644C42.744 38.3383 42.8102 38.367 42.8632 38.4243L43.6584 39.2057C43.7168 39.2578 43.7459 39.323 43.7459 39.4011V40.1825C43.7459 40.2607 43.7168 40.3258 43.6584 40.3779L42.8632 41.1594C42.8102 41.2167 42.744 41.2453 42.6644 41.2453H42.561L43.6584 42.3316C43.7168 42.3889 43.7459 42.454 43.7459 42.5269C43.7459 42.5999 43.7168 42.6675 43.6584 42.73C43.6001 42.7873 43.5311 42.816 43.4517 42.816C43.3774 42.816 43.3112 42.7848 43.2529 42.7223ZM45.6495 39.2057C45.5912 39.2578 45.5621 39.323 45.5621 39.4011V41.7454C45.5621 41.8236 45.5912 41.8887 45.6495 41.9408L46.4447 42.7223C46.4978 42.7796 46.564 42.8082 46.6436 42.8082H49.0292C49.1086 42.8082 49.175 42.7796 49.2279 42.7223L50.0232 41.9408C50.0815 41.8887 50.1107 41.8236 50.1107 41.7454V39.4011C50.1107 39.323 50.0815 39.2578 50.0232 39.2057L49.2279 38.4243C49.175 38.367 49.1086 38.3383 49.0292 38.3383H46.6436C46.564 38.3383 46.4978 38.367 46.4447 38.4243L45.6495 39.2057ZM46.1347 41.6282V39.5183L46.7628 38.901H48.9099L49.5381 39.5183V41.6282L48.9099 42.2456H46.7628L46.1347 41.6282ZM52.4993 38.6197V41.6282L53.1276 42.2456H55.2747L55.9029 41.6282V38.6197C55.9029 38.4322 55.9983 38.3383 56.1892 38.3383C56.38 38.3383 56.4754 38.4322 56.4754 38.6197V41.7454C56.4754 41.8236 56.4462 41.8887 56.3879 41.9408L55.5927 42.7223C55.5398 42.7796 55.4734 42.8082 55.394 42.8082H53.0083C52.9288 42.8082 52.8626 42.7796 52.8095 42.7223L52.0143 41.9408C51.956 41.8887 51.9268 41.8236 51.9268 41.7454V38.6197C51.9268 38.4322 52.0222 38.3383 52.2131 38.3383C52.4039 38.3383 52.4993 38.4322 52.4993 38.6197ZM61.6394 40.6827H58.8641V38.901H61.6394L62.2676 39.5183V40.0653L61.6394 40.6827ZM58.2916 38.6197V42.5269C58.2916 42.7145 58.387 42.8082 58.5779 42.8082C58.7687 42.8082 58.8641 42.7145 58.8641 42.5269V41.2453H61.7587C61.8382 41.2453 61.9045 41.2167 61.9575 41.1594L62.7528 40.3779C62.8111 40.3258 62.8401 40.2607 62.8401 40.1825V39.4011C62.8401 39.323 62.8111 39.2578 62.7528 39.2057L61.9575 38.4243C61.9045 38.367 61.8382 38.3383 61.7587 38.3383H58.5779C58.5037 38.3383 58.4374 38.367 58.3791 38.4243C58.3208 38.4816 58.2916 38.5468 58.2916 38.6197ZM41.6955 30.9024V33.8677C41.6955 34.2524 41.4998 34.4448 41.1083 34.4448C40.7169 34.4448 40.5212 34.2524 40.5212 33.8677V30.9024L35.8074 26.2543C35.6768 26.1367 35.6116 26.0031 35.6116 25.8535C35.6116 25.7039 35.6714 25.5703 35.791 25.4528C35.9215 25.3246 36.0628 25.2605 36.2151 25.2605C36.3673 25.2605 36.5033 25.3246 36.6228 25.4528L41.1083 29.8446L45.5938 25.4528C45.7134 25.3246 45.8492 25.2605 46.0015 25.2605C46.1537 25.2605 46.2898 25.3246 46.4093 25.4528C46.5399 25.5703 46.605 25.7039 46.605 25.8535C46.605 26.0031 46.5399 26.1367 46.4093 26.2543L41.6955 30.9024ZM63.8769 30.085H60.6148C60.2233 30.085 60.0276 30.2774 60.0276 30.6621C60.0276 31.0468 60.2233 31.2391 60.6148 31.2391H63.2898V32.0245L62.0012 33.2907H58.3476L56.3087 31.9603V27.6968L57.5973 26.4305H62.0012L63.4529 27.8571C63.5724 27.9853 63.7083 28.0495 63.8606 28.0495C64.0237 28.0495 64.1651 27.9906 64.2847 27.8731C64.4043 27.7449 64.4641 27.606 64.4641 27.4564C64.4641 27.3068 64.4043 27.1732 64.2847 27.0556L62.6536 25.4528C62.5448 25.3352 62.4089 25.2765 62.2458 25.2765H57.3527C57.1896 25.2765 57.0482 25.3352 56.9285 25.4528L55.2975 27.0556C55.1888 27.1625 55.1344 27.2961 55.1344 27.4564V32.2649C55.1344 32.3183 55.167 32.4038 55.2322 32.5214C55.2975 32.6389 55.3519 32.7137 55.3953 32.7457L57.8419 34.3486C57.9398 34.4127 58.0486 34.4448 58.1681 34.4448H62.2458C62.4089 34.4448 62.5448 34.386 62.6536 34.2685L64.2847 32.6656C64.4043 32.5588 64.4641 32.4252 64.4641 32.2649V30.6621C64.4641 30.5124 64.4043 30.3789 64.2847 30.2614C64.1651 30.1438 64.0292 30.085 63.8769 30.085ZM74.0922 28.4822H80.0293C80.4208 28.4822 80.6165 28.6746 80.6165 29.0592C80.6165 29.4439 80.4208 29.6362 80.0293 29.6362H74.0922V33.2907H81.6604C82.1143 33.2907 82.2476 33.483 82.2476 33.8677C82.2476 34.2524 82.0518 34.4448 81.6604 34.4448H73.505C73.3528 34.4448 73.2169 34.386 73.0972 34.2685C72.9776 34.1509 72.9178 34.0173 72.9178 33.8677V25.8535C72.9178 25.7039 72.9776 25.5703 73.0972 25.4528C73.2169 25.3352 73.3528 25.2765 73.505 25.2765H81.6604C82.0518 25.2765 82.2476 25.4689 82.2476 25.8535C82.2476 26.2382 82.0518 26.4305 81.6604 26.4305H74.0922V28.4822Z" fill="white"/>
</g>
<defs>
<clipPath id="clip0_986_405">
<rect width="100" height="60" fill="white"/>
</clipPath>
</defs>
</svg>
