<svg width="290" height="176" viewBox="0 0 290 176" fill="none" xmlns="http://www.w3.org/2000/svg">
<g clip-path="url(#clip0_986_413)">
<path fill-rule="evenodd" clip-rule="evenodd" d="M62.7763 45.2174L143.113 3.42033L216.559 45.1757V65.9705C216.559 66.8829 217.303 67.6225 218.221 67.6225C219.139 67.6225 219.883 66.8829 219.883 65.9705V44.8561C219.883 43.8684 219.351 42.9565 218.488 42.466L144.501 0.402412C143.68 -0.0638775 142.677 -0.0824918 141.84 0.353039L60.9375 42.4443C60.0244 42.9196 59.452 43.8594 59.452 44.884V65.9705C59.452 66.8829 60.1963 67.6225 61.1143 67.6225C62.0322 67.6225 62.7763 66.8829 62.7763 65.9705V45.2174ZM62.7763 110.027C62.7763 109.115 62.0322 108.375 61.1143 108.375C60.1963 108.375 59.452 109.115 59.452 110.027V131.389C59.452 132.414 60.0241 133.353 60.9369 133.829L141.254 175.646C142.086 176.079 143.082 176.064 143.9 175.606L218.473 133.811C219.344 133.323 219.883 132.406 219.883 131.412V110.027C219.883 109.115 219.139 108.375 218.221 108.375C217.303 108.375 216.559 109.115 216.559 110.027V131.091L142.529 172.58L62.7763 131.056V110.027ZM264.361 73.9556C263.384 73.9556 262.895 74.5826 262.895 75.8364V99.3448C262.895 100.473 263.462 101.037 264.598 101.037C265.733 101.037 266.301 100.473 266.301 99.3448V79.9269L287.066 100.52C287.54 100.991 288.011 101.225 288.485 101.225C289.464 101.225 289.952 100.598 289.952 99.3448V75.8364C289.952 74.7082 289.384 74.1438 288.249 74.1438C287.114 74.1438 286.547 74.7082 286.547 75.8364V95.2545L265.78 74.661C265.307 74.1909 264.834 73.9556 264.361 73.9556ZM65.2875 85.1928L54.6446 74.661C54.2979 74.2848 53.9037 74.0969 53.4622 74.0969C53.0207 74.0969 52.2324 74.661 52.2324 74.661C51.8854 75.0057 51.712 75.3975 51.712 75.8364C51.712 76.2752 51.9322 76.5615 52.3107 76.9065L62.875 87.5906L52.2795 98.1695C51.9013 98.5141 51.712 98.9059 51.712 99.3448C51.712 99.7836 51.8854 100.191 52.2324 100.567C52.6107 100.912 53.0207 101.084 53.4622 101.084C53.9037 101.084 54.2979 100.896 54.6446 100.52L65.2875 89.9886L75.9301 100.52C76.2772 100.896 76.6713 101.084 77.1128 101.084C77.5543 101.084 77.9485 100.912 78.2952 100.567C78.6738 100.191 78.8627 99.7836 78.8627 99.3448C78.8627 98.9059 78.6738 98.5141 78.2952 98.1695L67.6997 87.5906L78.2952 77.0119C78.6738 76.667 78.8627 76.2752 78.8627 75.8364C78.8627 75.3975 78.6738 75.0057 78.2952 74.661C77.9485 74.2848 77.5543 74.0969 77.1128 74.0969C76.6713 74.0969 76.2772 74.2848 75.9301 74.661L65.2875 85.1928ZM0.0488281 80.5382C0.0488281 80.068 0.22225 79.6762 0.569124 79.3626L5.29923 74.661C5.43829 74.509 7.06442 74.3906 8.23061 74.3054C9.70896 74.1976 10.4481 74.1438 6.48178 74.1438H20.6721C21.1451 74.1438 21.5393 74.3161 21.8547 74.661L26.5848 79.3626C26.9317 79.6762 27.1051 80.068 27.1051 80.5382V94.6432C27.1051 95.1134 26.9317 95.5052 26.5848 95.8186L21.8547 100.52C21.5393 100.865 21.1451 101.037 20.6721 101.037H13.577H6.48178C6.00879 101.037 5.61456 100.865 5.29923 100.52L0.569124 95.8186C0.22225 95.5052 0.0488281 95.1134 0.0488281 94.6432V80.5382ZM3.45452 81.2433V93.9378L7.19132 97.6522H19.9626L23.6994 93.9378V81.2433L19.9626 77.5289H7.19132L3.45452 81.2433ZM102.963 119.335H107.575C107.79 119.335 107.982 119.419 108.152 119.588C108.321 119.756 108.405 119.947 108.405 120.16V122.453C108.405 122.682 108.321 122.873 108.152 123.026L105.846 125.318C105.692 125.486 105.5 125.57 105.269 125.57H99.5038C99.3347 125.57 99.1806 125.524 99.0424 125.433L95.5831 123.14C95.5219 123.095 95.445 122.988 95.3527 122.82C95.2605 122.652 95.2143 122.529 95.2143 122.453V115.576C95.2143 115.347 95.2912 115.156 95.445 115.003L97.7511 112.711C97.9202 112.543 98.1199 112.458 98.3506 112.458H105.269C105.5 112.458 105.692 112.543 105.846 112.711L108.152 115.003C108.321 115.171 108.405 115.362 108.405 115.576C108.405 115.79 108.321 115.989 108.152 116.172C107.982 116.34 107.782 116.424 107.552 116.424C107.337 116.424 107.145 116.332 106.975 116.149L104.923 114.109H98.6965L96.8748 115.92V122.017L99.7572 123.92H104.923L106.745 122.109V120.986H102.963C102.409 120.986 102.133 120.711 102.133 120.16C102.133 119.61 102.409 119.335 102.963 119.335ZM121.282 119.335C121.374 119.32 121.467 119.32 121.559 119.335H123.381L125.203 117.524V115.92L123.381 114.109H115.333V119.335H121.282ZM125.433 125.318L121.075 120.986H115.333V124.745C115.333 125.295 115.056 125.57 114.502 125.57C113.949 125.57 113.672 125.295 113.672 124.745V113.284C113.672 113.07 113.749 112.879 113.903 112.711C114.072 112.543 114.272 112.458 114.502 112.458H123.727C123.957 112.458 124.15 112.543 124.303 112.711L126.609 115.003C126.779 115.156 126.863 115.347 126.863 115.576V117.868C126.863 118.098 126.779 118.288 126.609 118.441L124.303 120.734C124.15 120.902 123.957 120.986 123.727 120.986H123.427L126.609 124.172C126.779 124.34 126.863 124.531 126.863 124.745C126.863 124.959 126.779 125.158 126.609 125.341C126.44 125.509 126.24 125.593 126.01 125.593C125.795 125.593 125.602 125.501 125.433 125.318ZM132.384 115.003C132.215 115.156 132.13 115.347 132.13 115.576V122.453C132.13 122.682 132.215 122.873 132.384 123.026L134.69 125.318C134.844 125.486 135.036 125.57 135.266 125.57H142.185C142.415 125.57 142.607 125.486 142.761 125.318L145.067 123.026C145.236 122.873 145.321 122.682 145.321 122.453V115.576C145.321 115.347 145.236 115.156 145.067 115.003L142.761 112.711C142.607 112.543 142.415 112.458 142.185 112.458H135.266C135.036 112.458 134.844 112.543 134.69 112.711L132.384 115.003ZM133.79 122.109V115.92L135.612 114.109H141.839L143.66 115.92V122.109L141.839 123.92H135.612L133.79 122.109ZM152.248 113.284V122.109L154.07 123.92H160.297L162.118 122.109V113.284C162.118 112.734 162.395 112.458 162.949 112.458C163.502 112.458 163.779 112.734 163.779 113.284V122.453C163.779 122.682 163.694 122.873 163.525 123.026L161.219 125.318C161.065 125.486 160.873 125.57 160.642 125.57H153.724C153.493 125.57 153.301 125.486 153.148 125.318L150.841 123.026C150.672 122.873 150.588 122.682 150.588 122.453V113.284C150.588 112.734 150.864 112.458 151.418 112.458C151.971 112.458 152.248 112.734 152.248 113.284ZM178.754 119.335H170.706V114.109H178.754L180.576 115.92V117.524L178.754 119.335ZM169.046 113.284V124.745C169.046 125.295 169.322 125.57 169.876 125.57C170.429 125.57 170.706 125.295 170.706 124.745V120.986H179.1C179.331 120.986 179.523 120.902 179.677 120.734L181.983 118.441C182.152 118.288 182.236 118.098 182.236 117.868V115.576C182.236 115.347 182.152 115.156 181.983 115.003L179.677 112.711C179.523 112.543 179.331 112.458 179.1 112.458H169.876C169.661 112.458 169.468 112.543 169.299 112.711C169.13 112.879 169.046 113.07 169.046 113.284ZM120.917 90.6466V99.3448C120.917 100.473 120.349 101.037 119.214 101.037C118.079 101.037 117.511 100.473 117.511 99.3448V90.6466L103.841 77.0119C103.463 76.667 103.274 76.2752 103.274 75.8364C103.274 75.3975 103.447 75.0057 103.794 74.661C104.172 74.2848 104.582 74.0969 105.024 74.0969C105.465 74.0969 105.859 74.2848 106.206 74.661L119.214 87.5435L132.222 74.661C132.569 74.2848 132.963 74.0969 133.404 74.0969C133.846 74.0969 134.24 74.2848 134.587 74.661C134.966 75.0057 135.155 75.3975 135.155 75.8364C135.155 76.2752 134.966 76.667 134.587 77.0119L120.917 90.6466ZM185.243 88.2489H175.783C174.648 88.2489 174.08 88.813 174.08 89.9415C174.08 91.0699 174.648 91.634 175.783 91.634H183.54V93.9378L179.803 97.6522H169.208L163.295 93.7497V81.2433L167.032 77.5289H179.803L184.013 81.7135C184.36 82.0897 184.754 82.2778 185.196 82.2778C185.669 82.2778 186.079 82.1052 186.426 81.7606C186.773 81.3843 186.946 80.977 186.946 80.5382C186.946 80.0993 186.773 79.7075 186.426 79.3626L181.696 74.661C181.38 74.3161 180.986 74.1438 180.513 74.1438H166.323C165.85 74.1438 165.44 74.3161 165.093 74.661L160.363 79.3626C160.047 79.6762 159.89 80.068 159.89 80.5382V94.6432C159.89 94.7998 159.984 95.0505 160.173 95.3955C160.363 95.7402 160.52 95.9596 160.646 96.0535L167.742 100.755C168.025 100.943 168.341 101.037 168.688 101.037H180.513C180.986 101.037 181.38 100.865 181.696 100.52L186.426 95.8186C186.773 95.5052 186.946 95.1134 186.946 94.6432V89.9415C186.946 89.5026 186.773 89.1108 186.426 88.7662C186.079 88.4212 185.685 88.2489 185.243 88.2489ZM214.867 83.5471H232.085C233.22 83.5471 233.788 84.1115 233.788 85.2397C233.788 86.3681 233.22 86.9323 232.085 86.9323H214.867V97.6522H236.815C238.131 97.6522 238.518 98.2163 238.518 99.3448C238.518 100.473 237.95 101.037 236.815 101.037H213.165C212.723 101.037 212.329 100.865 211.982 100.52C211.635 100.175 211.462 99.7836 211.462 99.3448V75.8364C211.462 75.3975 211.635 75.0057 211.982 74.661C212.329 74.3161 212.723 74.1438 213.165 74.1438H236.815C237.95 74.1438 238.518 74.7082 238.518 75.8364C238.518 76.9648 237.95 77.5289 236.815 77.5289H214.867V83.5471Z" fill="#022A58"/>
</g>
<defs>
<clipPath id="clip0_986_413">
<rect width="290" height="176" fill="white"/>
</clipPath>
</defs>
</svg>
