<svg width="336" height="72" viewBox="0 0 336 72" fill="none" xmlns="http://www.w3.org/2000/svg">
<path d="M19.3798 31.6352L29.4611 41.2332M62.0494 30.7354L51.2648 40.9332M29.5473 54.8318L33.6621 58.914C33.7496 59.0008 33.8667 59.0493 33.9885 59.0493H46.4639C46.5872 59.0493 46.7056 58.9996 46.7934 58.9109L50.8299 54.8313C50.9191 54.7412 50.9693 54.6182 50.9693 54.4899V41.6469C50.9693 41.5197 50.9199 41.3976 50.832 41.3076L46.7937 37.1746C46.7058 37.0846 46.5865 37.0341 46.4622 37.0341H33.9119C33.7875 37.0341 33.6683 37.0846 33.5803 37.1746L29.5421 41.3076C29.4542 41.3976 29.4048 41.5197 29.4048 41.6469V54.4872C29.4048 54.6171 29.4562 54.7414 29.5473 54.8318ZM3.14254 31.9931L6.21296 35.0392C6.30044 35.1259 6.41749 35.1745 6.53932 35.1745H15.9584C16.0817 35.1745 16.2001 35.1247 16.2878 35.036L19.2991 31.9926C19.3884 31.9024 19.4386 31.7795 19.4386 31.6511V21.956C19.4386 21.8287 19.3892 21.7066 19.3012 21.6166L16.2882 18.5329C16.2003 18.4429 16.081 18.3923 15.9566 18.3923H6.48194C6.35758 18.3923 6.23831 18.4429 6.15038 18.5329L3.13734 21.6166C3.0494 21.7066 3 21.8287 3 21.956V31.6485C3 31.7784 3.05143 31.9027 3.14254 31.9931Z" stroke="#022A58" stroke-width="5.51762"/>
<path d="M151.769 63.5064H157.671C157.947 63.5064 158.193 63.6156 158.409 63.8339C158.625 64.0522 158.734 64.3003 158.734 64.5781V67.5552C158.734 67.8529 158.625 68.101 158.409 68.2994L155.458 71.2765C155.261 71.4948 155.015 71.604 154.72 71.604H147.343C147.126 71.604 146.93 71.5444 146.753 71.4253L142.326 68.4483C142.247 68.3888 142.149 68.2498 142.031 68.0315C141.913 67.8132 141.854 67.6544 141.854 67.5552V58.624C141.854 58.3263 141.952 58.0782 142.149 57.8798L145.1 54.9027C145.316 54.6844 145.572 54.5752 145.867 54.5752H154.72C155.015 54.5752 155.261 54.6844 155.458 54.9027L158.409 57.8798C158.625 58.0981 158.734 58.3462 158.734 58.624C158.734 58.9019 158.625 59.1599 158.409 59.3981C158.193 59.6164 157.937 59.7255 157.642 59.7255C157.366 59.7255 157.12 59.6065 156.904 59.3683L154.278 56.7187H146.31L143.979 59.0706V66.9895L147.667 69.4605H154.278L156.609 67.1086V65.6499H151.769C151.061 65.6499 150.707 65.2926 150.707 64.5781C150.707 63.8636 151.061 63.5064 151.769 63.5064Z" fill="#022A58"/>
<path d="M175.212 63.5064C175.33 63.4865 175.448 63.4865 175.566 63.5064H177.897L180.228 61.1545V59.0706L177.897 56.7187H167.598V63.5064H175.212ZM180.523 71.2765L174.946 65.6499H167.598V70.5322C167.598 71.2467 167.244 71.604 166.536 71.604C165.828 71.604 165.473 71.2467 165.473 70.5322V55.647C165.473 55.3691 165.572 55.121 165.768 54.9027C165.985 54.6844 166.241 54.5752 166.536 54.5752H178.34C178.635 54.5752 178.881 54.6844 179.077 54.9027L182.028 57.8798C182.245 58.0782 182.353 58.3263 182.353 58.624V61.6011C182.353 61.8988 182.245 62.1469 182.028 62.3453L179.077 65.3224C178.881 65.5407 178.635 65.6499 178.34 65.6499H177.956L182.028 69.788C182.245 70.0063 182.353 70.2544 182.353 70.5322C182.353 70.8101 182.245 71.0681 182.028 71.3063C181.812 71.5246 181.556 71.6337 181.261 71.6337C180.986 71.6337 180.74 71.5147 180.523 71.2765Z" fill="#022A58"/>
<path d="M189.093 58.624C189.093 58.3263 189.201 58.0782 189.417 57.8798L192.368 54.9027C192.565 54.6844 192.811 54.5752 193.106 54.5752H201.959C202.254 54.5752 202.5 54.6844 202.697 54.9027L205.648 57.8798C205.864 58.0782 205.972 58.3263 205.972 58.624V67.5552C205.972 67.8529 205.864 68.101 205.648 68.2994L202.697 71.2765C202.5 71.4948 202.254 71.604 201.959 71.604H193.106C192.811 71.604 192.565 71.4948 192.368 71.2765L189.417 68.2994C189.201 68.101 189.093 67.8529 189.093 67.5552V58.624ZM191.218 59.0706V67.1086L193.549 69.4605H201.516L203.848 67.1086V59.0706L201.516 56.7187H193.549L191.218 59.0706Z" fill="#022A58"/>
<path d="M214.837 55.647V67.1086L217.168 69.4605H225.136L227.467 67.1086V55.647C227.467 54.9325 227.821 54.5752 228.529 54.5752C229.238 54.5752 229.592 54.9325 229.592 55.647V67.5552C229.592 67.8529 229.484 68.101 229.267 68.2994L226.316 71.2765C226.12 71.4948 225.874 71.604 225.579 71.604H216.726C216.43 71.604 216.185 71.4948 215.988 71.2765L213.037 68.2994C212.82 68.101 212.712 67.8529 212.712 67.5552V55.647C212.712 54.9325 213.066 54.5752 213.775 54.5752C214.483 54.5752 214.837 54.9325 214.837 55.647Z" fill="#022A58"/>
<path d="M238.456 63.5064H248.755L251.087 61.1545V59.0706L248.755 56.7187H238.456V63.5064ZM236.332 70.5322V55.647C236.332 55.3691 236.44 55.121 236.656 54.9027C236.873 54.6844 237.119 54.5752 237.394 54.5752H249.198C249.493 54.5752 249.739 54.6844 249.936 54.9027L252.887 57.8798C253.103 58.0782 253.211 58.3263 253.211 58.624V61.6011C253.211 61.8988 253.103 62.1469 252.887 62.3453L249.936 65.3224C249.739 65.5407 249.493 65.6499 249.198 65.6499H238.456V70.5322C238.456 71.2467 238.102 71.604 237.394 71.604C236.686 71.604 236.332 71.2467 236.332 70.5322Z" fill="#022A58"/>
<path d="M59.1453 8.54883C59.1453 7.9382 59.3672 7.42934 59.8111 7.02226L65.8639 0.915946C66.2675 0.46815 66.7719 0.244253 67.3771 0.244253H85.5357C86.141 0.244253 86.6454 0.46815 87.0489 0.915946L93.1018 7.02226C93.5456 7.42934 93.7676 7.9382 93.7676 8.54883V26.8678C93.7676 27.4784 93.5456 27.9873 93.1018 28.3943L87.0489 34.5007C86.6454 34.9484 86.141 35.1723 85.5357 35.1723H67.3771C66.7719 35.1723 66.2675 34.9484 65.8639 34.5007L59.8111 28.3943C59.3672 27.9873 59.1453 27.4784 59.1453 26.8678V8.54883ZM63.5033 9.46478V25.9518L68.2851 30.7758H84.6278L89.4095 25.9518V9.46478L84.6278 4.6408H68.2851L63.5033 9.46478Z" fill="#022A58"/>
<path d="M111.284 0.915946L124.903 14.5941L138.522 0.915946C138.966 0.427442 139.47 0.183191 140.035 0.183191C140.6 0.183191 141.104 0.427442 141.548 0.915946C142.032 1.36374 142.275 1.8726 142.275 2.44253C142.275 3.01245 142.032 3.52131 141.548 3.9691L127.99 17.7083L141.548 31.4475C142.032 31.8953 142.275 32.4042 142.275 32.9741C142.275 33.544 142.032 34.0732 141.548 34.5617C141.104 35.0095 140.6 35.2334 140.035 35.2334C139.47 35.2334 138.966 34.9892 138.522 34.5007L124.903 20.8225L111.284 34.5007C110.84 34.9892 110.336 35.2334 109.771 35.2334C109.206 35.2334 108.681 35.0095 108.197 34.5617C107.753 34.0732 107.531 33.544 107.531 32.9741C107.531 32.4042 107.773 31.8953 108.258 31.4475L121.816 17.7083L108.258 3.9691C107.773 3.52131 107.531 3.01245 107.531 2.44253C107.531 1.8726 107.753 1.36374 108.197 0.915946C108.681 0.427442 109.206 0.183191 109.771 0.183191C110.336 0.183191 110.84 0.427442 111.284 0.915946Z" fill="#022A58"/>
<path d="M175.528 21.6774V32.9741C175.528 34.4396 174.802 35.1723 173.349 35.1723C171.897 35.1723 171.17 34.4396 171.17 32.9741V21.6774L153.678 3.9691C153.193 3.52131 152.951 3.01245 152.951 2.44253C152.951 1.8726 153.173 1.36374 153.617 0.915946C154.101 0.427442 154.626 0.183191 155.191 0.183191C155.756 0.183191 156.26 0.427442 156.704 0.915946L173.349 17.6472L189.995 0.915946C190.439 0.427442 190.943 0.183191 191.508 0.183191C192.073 0.183191 192.577 0.427442 193.021 0.915946C193.505 1.36374 193.747 1.8726 193.747 2.44253C193.747 3.01245 193.505 3.52131 193.021 3.9691L175.528 21.6774Z" fill="#022A58"/>
<path d="M224.822 18.5632H236.928C237.493 18.5632 237.997 18.7871 238.441 19.2349C238.885 19.6827 239.107 20.1915 239.107 20.7615V26.8678C239.107 27.4784 238.885 27.9873 238.441 28.3943L232.388 34.5007C231.985 34.9484 231.48 35.1723 230.875 35.1723H215.743C215.299 35.1723 214.896 35.0502 214.532 34.806L205.453 28.6997C205.292 28.5775 205.09 28.2926 204.848 27.8448C204.606 27.397 204.485 27.0713 204.485 26.8678V8.54883C204.485 7.9382 204.686 7.42934 205.09 7.02226L211.143 0.915946C211.587 0.46815 212.111 0.244253 212.717 0.244253H230.875C231.48 0.244253 231.985 0.46815 232.388 0.915946L238.441 7.02226C238.885 7.47005 239.107 7.97891 239.107 8.54883C239.107 9.11876 238.885 9.64797 238.441 10.1365C237.997 10.5843 237.473 10.8082 236.867 10.8082C236.303 10.8082 235.798 10.5639 235.354 10.0754L229.967 4.6408H213.624L208.843 9.46478V25.7076L216.409 30.7758H229.967L234.749 25.9518V22.9597H224.822C223.37 22.9597 222.643 22.227 222.643 20.7615C222.643 19.2959 223.37 18.5632 224.822 18.5632Z" fill="#022A58"/>
<path d="M257.289 12.4569H279.322C280.774 12.4569 281.501 13.1896 281.501 14.6551C281.501 16.1207 280.774 16.8534 279.322 16.8534H257.289V30.7758H285.374C286.827 30.7758 287.553 31.5086 287.553 32.9741C287.553 34.4396 286.827 35.1723 285.374 35.1723H255.11C254.545 35.1723 254.041 34.9484 253.597 34.5007C253.153 34.0529 252.931 33.544 252.931 32.9741V2.44253C252.931 1.8726 253.153 1.36374 253.597 0.915946C254.041 0.46815 254.545 0.244253 255.11 0.244253H285.374C286.827 0.244253 287.553 0.97701 287.553 2.44253C287.553 3.90804 286.827 4.6408 285.374 4.6408H257.289V12.4569Z" fill="#022A58"/>
<path d="M301.378 32.9741V2.44253C301.378 0.814175 302.003 0 303.254 0C303.859 0 304.465 0.305315 305.07 0.915946L331.642 27.6616V2.44253C331.642 0.97701 332.368 0.244253 333.821 0.244253C335.274 0.244253 336 0.97701 336 2.44253V32.9741C336 34.6024 335.374 35.4166 334.124 35.4166C333.518 35.4166 332.913 35.1113 332.308 34.5007L305.736 7.75501V32.9741C305.736 34.4396 305.009 35.1723 303.557 35.1723C302.104 35.1723 301.378 34.4396 301.378 32.9741Z" fill="#022A58"/>
</svg>
