<svg width="107" height="66" viewBox="0 0 107 66" fill="none" xmlns="http://www.w3.org/2000/svg">
<path fill-rule="evenodd" clip-rule="evenodd" d="M23.5 17.4L52.8 2.2L79.6 17.4V25C79.6 25.3 79.9 25.6 80.2 25.6C80.5 25.6 80.8 25.3 80.8 25V17.3C80.8 16.9 80.6 16.6 80.3 16.4L53.3 1.1C53 0.899997 52.6 0.899997 52.3 1.1L22.8 16.4C22.5 16.6 22.3 16.9 22.3 17.3V25C22.3 25.3 22.6 25.6 22.9 25.6C23.2 25.6 23.5 25.3 23.5 25V17.4ZM23.5 41C23.5 40.7 23.2 40.4 22.9 40.4C22.6 40.4 22.3 40.7 22.3 41V48.8C22.3 49.2 22.5 49.5 22.8 49.7L52.1 64.9C52.4 65.1 52.8 65.1 53.1 64.9L80.3 49.7C80.6 49.5 80.8 49.2 80.8 48.8V41C80.8 40.7 80.5 40.4 80.2 40.4C79.9 40.4 79.6 40.7 79.6 41V48.7L52.6 63.8L23.5 48.7V41ZM97.1 27.9C96.7 27.9 96.6 28.1 96.6 28.6V37.2C96.6 37.6 96.8 37.8 97.2 37.8C97.6 37.8 97.8 37.6 97.8 37.2V30.1L105.4 37.6C105.6 37.8 105.7 37.9 105.9 37.9C106.3 37.9 106.4 37.7 106.4 37.2V28.6C106.4 28.2 106.2 28 105.8 28C105.4 28 105.2 28.2 105.2 28.6V35.7L97.6 28.2C97.4 28 97.3 27.9 97.1 27.9ZM24.4 32L20.5 28.2C20.4 28.1 20.2 28 20.1 28C19.9 28 19.7 28.2 19.7 28.2C19.6 28.3 19.5 28.5 19.5 28.6C19.5 28.8 19.6 28.9 19.7 29L23.6 32.9L19.7 36.8C19.6 36.9 19.5 37.1 19.5 37.2C19.5 37.4 19.6 37.5 19.7 37.6C19.8 37.7 20 37.8 20.1 37.8C20.3 37.8 20.4 37.7 20.5 37.6L24.4 33.8L28.3 37.6C28.4 37.7 28.6 37.8 28.7 37.8C28.9 37.8 29 37.7 29.1 37.6C29.2 37.5 29.3 37.3 29.3 37.2C29.3 37 29.2 36.9 29.1 36.8L25.2 32.9L29.1 29C29.2 28.9 29.3 28.7 29.3 28.6C29.3 28.4 29.2 28.3 29.1 28.2C29 28.1 28.8 28 28.7 28C28.5 28 28.4 28.1 28.3 28.2L24.4 32ZM0.599976 30.3C0.599976 30.1 0.699976 30 0.799976 29.9L2.49998 28.2C2.49998 28.1 3.09998 28 3.49998 28C4.09998 28 4.39998 28 2.89998 28H8.09998C8.29998 28 8.39998 28.1 8.49998 28.2L10.2 29.9C10.3 30 10.4 30.2 10.4 30.3V35.4C10.4 35.6 10.3 35.7 10.2 35.8L8.49998 37.5C8.39998 37.6 8.19998 37.7 8.09998 37.7H5.49998H2.89998C2.69998 37.7 2.59998 37.6 2.49998 37.5L0.799976 35.8C0.699976 35.7 0.599976 35.5 0.599976 35.4V30.3ZM1.79998 30.5V35.1L3.19998 36.5H7.89998L9.29998 35.1V30.5L7.89998 29.1H3.19998L1.79998 30.5ZM38.1 44.4H39.8C39.9 44.4 39.9 44.4 40 44.5C40.1 44.6 40.1 44.6 40.1 44.7V45.5C40.1 45.6 40.1 45.7 40 45.7L39.2 46.5C39.1 46.6 39.1 46.6 39 46.6H36.9C36.8 46.6 36.8 46.6 36.7 46.5L35.4 45.7L35.3 45.6C35.3 45.5 35.2 45.5 35.2 45.5V43C35.2 42.9 35.2 42.8 35.3 42.8L36.1 42C36.2 41.9 36.2 41.9 36.3 41.9H39C39.1 41.9 39.2 41.9 39.2 42L40 42.8C40.1 42.9 40.1 42.9 40.1 43C40.1 43.1 40.1 43.2 40 43.2C39.9 43.3 39.9 43.3 39.8 43.3C39.7 43.3 39.7 43.3 39.6 43.2L38.9 42.5H36.6L35.9 43.2V45.4L37 46.1H38.9L39.6 45.4V45H38.2C38 45 37.9 44.9 37.9 44.7C37.9 44.5 37.9 44.4 38.1 44.4ZM44.8 44.4H44.9H45.6L46.3 43.7V43.1L45.6 42.4H42.7V44.3H44.8V44.4ZM46.4 46.6L44.8 45H42.7V46.4C42.7 46.6 42.6 46.7 42.4 46.7C42.2 46.7 42.1 46.6 42.1 46.4V42.2C42.1 42.1 42.1 42.1 42.2 42C42.3 41.9 42.3 41.9 42.4 41.9H45.8C45.9 41.9 46 41.9 46 42L46.8 42.8C46.9 42.9 46.9 42.9 46.9 43V43.8C46.9 43.9 46.9 44 46.8 44L46 44.8C45.9 45 45.8 45 45.7 45H45.6L46.8 46.2C46.9 46.3 46.9 46.3 46.9 46.4C46.9 46.5 46.9 46.6 46.8 46.6C46.7 46.7 46.7 46.7 46.6 46.7C46.5 46.7 46.4 46.6 46.4 46.6ZM48.9 42.8C48.8 42.9 48.8 42.9 48.8 43V45.5C48.8 45.6 48.8 45.7 48.9 45.7L49.7 46.5C49.8 46.6 49.8 46.6 49.9 46.6H52.4C52.5 46.6 52.6 46.6 52.6 46.5L53.4 45.7C53.5 45.6 53.5 45.6 53.5 45.5V43C53.5 42.9 53.5 42.8 53.4 42.8L52.7 42C52.6 41.9 52.6 41.9 52.5 41.9H50C49.9 41.9 49.8 41.9 49.8 42L48.9 42.8ZM49.4 45.4V43.1L50.1 42.4H52.4L53.1 43.1V45.4L52.4 46.1H50.1L49.4 45.4ZM56.1 42.2V45.4L56.8 46.1H59.1L59.8 45.4V42.2C59.8 42 59.9 41.9 60.1 41.9C60.3 41.9 60.4 42 60.4 42.2V45.5C60.4 45.6 60.4 45.7 60.3 45.7L59.5 46.5C59.4 46.6 59.4 46.6 59.3 46.6H56.8C56.7 46.6 56.6 46.6 56.6 46.5L55.8 45.7C55.7 45.6 55.7 45.6 55.7 45.5V42.2C55.7 42 55.8 41.9 56 41.9C56 41.9 56.1 42 56.1 42.2ZM65.8 44.4H62.9V42.5H65.8L66.5 43.2V43.8L65.8 44.4ZM62.3 42.2V46.4C62.3 46.6 62.4 46.7 62.6 46.7C62.8 46.7 62.9 46.6 62.9 46.4V45H66C66.1 45 66.2 45 66.2 44.9L67 44.1C67.1 44 67.1 44 67.1 43.9V43C67.1 42.9 67.1 42.8 67 42.8L66.2 42C66.1 41.9 66.1 41.9 66 41.9H62.6C62.5 41.9 62.5 41.9 62.4 42C62.3 42.1 62.3 42.1 62.3 42.2ZM44.7 34V37.2C44.7 37.6 44.5 37.8 44.1 37.8C43.7 37.8 43.5 37.6 43.5 37.2V34L38.5 29C38.4 28.9 38.3 28.7 38.3 28.6C38.3 28.4 38.4 28.3 38.5 28.2C38.6 28.1 38.8 28 38.9 28C39.1 28 39.2 28.1 39.3 28.2L44.1 32.9L48.9 28.2C49 28.1 49.2 28 49.3 28C49.5 28 49.6 28.1 49.7 28.2C49.8 28.3 49.9 28.5 49.9 28.6C49.9 28.8 49.8 28.9 49.7 29L44.7 34ZM68.2 33.1H64.7C64.3 33.1 64.1 33.3 64.1 33.7C64.1 34.1 64.3 34.3 64.7 34.3H67.5V35.1L66.1 36.5H62.2L60 35.1V30.5L61.4 29.1H66.1L67.6 30.6C67.7 30.7 67.9 30.8 68 30.8C68.2 30.8 68.3 30.7 68.4 30.6C68.5 30.5 68.6 30.3 68.6 30.2C68.6 30 68.5 29.9 68.4 29.8L66.7 28.1C66.8 28 66.6 28 66.5 28H61.3C61.1 28 61 28.1 60.9 28.2L59.2 29.9C59.1 30 59 30.2 59 30.3V35.4C59 35.5 59 35.5 59.1 35.7C59.2 35.8 59.2 35.9 59.3 35.9L61.9 37.6C62 37.7 62.1 37.7 62.2 37.7H66.5C66.7 37.7 66.8 37.6 66.9 37.5L68.6 35.8C68.7 35.7 68.8 35.5 68.8 35.4V33.7C68.8 33.5 68.7 33.4 68.6 33.3C68.5 33.2 68.4 33.1 68.2 33.1ZM79 31.4H85.3C85.7 31.4 85.9 31.6 85.9 32C85.9 32.4 85.7 32.6 85.3 32.6H79V36.5H87C87.5 36.5 87.6 36.7 87.6 37.1C87.6 37.5 87.4 37.7 87 37.7H78.4C78.2 37.7 78.1 37.6 78 37.5C77.9 37.4 77.8 37.2 77.8 37.1V28.5C77.8 28.3 77.9 28.2 78 28.1C78.1 28 78.3 27.9 78.4 27.9H87C87.4 27.9 87.6 28.1 87.6 28.5C87.6 28.9 87.4 29.1 87 29.1H79V31.4Z" fill="white" stroke="white" stroke-miterlimit="10"/>
</svg>
