<svg width="28" height="29" viewBox="0 0 28 29" fill="none" xmlns="http://www.w3.org/2000/svg">
<path d="M3.5 3.65723H24.5C24.8094 3.65723 25.1062 3.78014 25.325 3.99894C25.5438 4.21773 25.6667 4.51447 25.6667 4.82389V23.4906C25.6667 23.8 25.5438 24.0967 25.325 24.3155C25.1062 24.5343 24.8094 24.6572 24.5 24.6572H3.5C3.19058 24.6572 2.89383 24.5343 2.67504 24.3155C2.45625 24.0967 2.33333 23.8 2.33333 23.4906V4.82389C2.33333 4.51447 2.45625 4.21773 2.67504 3.99894C2.89383 3.78014 3.19058 3.65723 3.5 3.65723ZM14.07 13.7874L6.58933 7.43489L5.0785 9.21289L14.0852 16.8604L22.9297 9.20706L21.4037 7.44189L14.07 13.7874Z" fill="#022A58"/>
</svg>
