<svg width="1280" height="6726" viewBox="0 0 1280 6726" fill="none" xmlns="http://www.w3.org/2000/svg">
<g clip-path="url(#clip0_819_1800)">
<g filter="url(#filter0_f_819_1800)">
<path d="M61.1257 518.351L-22.341 530.29L-53.4724 610.448L-1.10849 678.666L82.3295 666.698L113.461 586.57L61.1257 518.351Z" stroke="#00E6D9" stroke-width="4" stroke-miterlimit="10"/>
<path d="M-1.88319 692.298C5.5488 692.298 11.5736 686.272 11.5736 678.838C11.5736 671.404 5.5488 665.378 -1.88319 665.378C-9.31518 665.378 -15.34 671.404 -15.34 678.838C-15.34 686.272 -9.31518 692.298 -1.88319 692.298Z" fill="#00E6D9"/>
<path d="M114.752 595.438C119.76 595.438 123.819 591.378 123.819 586.369C123.819 581.36 119.76 577.3 114.752 577.3C109.745 577.3 105.685 581.36 105.685 586.369C105.685 591.378 109.745 595.438 114.752 595.438Z" fill="#00E6D9"/>
<path d="M13.8976 503.198L36.45 449.817L0.297397 403.066L-58.4076 409.724L-80.96 463.134L-44.8073 509.856L13.8976 503.198Z" stroke="#00E6D9" stroke-width="4" stroke-miterlimit="10"/>
<path d="M-4.32203 247.458L-21.5663 288.986L6.72458 325.09L52.2597 319.637L69.4752 278.08L41.1844 242.005L-4.32203 247.458Z" stroke="#00E6D9" stroke-width="4" stroke-miterlimit="10"/>
<path d="M41.4712 246.195C44.1493 246.195 46.3203 244.024 46.3203 241.345C46.3203 238.667 44.1493 236.495 41.4712 236.495C38.7932 236.495 36.6222 238.667 36.6222 241.345C36.6222 244.024 38.7932 246.195 41.4712 246.195Z" fill="#00E6D9"/>
<path d="M-80.013 307.296L-100.528 355.655L-67.8474 398.044L-14.6514 392.132L5.89254 343.773L-26.817 301.384L-80.013 307.296Z" stroke="#00E6D9" stroke-width="4" stroke-miterlimit="10"/>
<path d="M532.975 747.717L488.387 753.543L471.286 796.104L498.773 832.81L543.362 826.956L560.462 784.423L532.975 747.717Z" stroke="#00E6D9" stroke-width="4" stroke-miterlimit="10"/>
<path d="M488.243 758.622C490.921 758.622 493.092 756.451 493.092 753.772C493.092 751.094 490.921 748.922 488.243 748.922C485.565 748.922 483.394 751.094 483.394 753.772C483.394 756.451 485.565 758.622 488.243 758.622Z" fill="#00E6D9"/>
<path d="M561.151 789.187C563.829 789.187 566 787.016 566 784.337C566 781.658 563.829 779.487 561.151 779.487C558.473 779.487 556.302 781.658 556.302 784.337C556.302 787.016 558.473 789.187 561.151 789.187Z" fill="#00E6D9"/>
<path d="M420.098 735.864L406.01 768.093L427.587 796.764L463.281 793.176L477.369 760.947L455.792 732.276L420.098 735.864Z" stroke="#00E6D9" stroke-width="4" stroke-miterlimit="10"/>
<path d="M406.096 772.082C408.188 772.082 409.884 770.386 409.884 768.294C409.884 766.202 408.188 764.506 406.096 764.506C404.005 764.506 402.309 766.202 402.309 768.294C402.309 770.386 404.005 772.082 406.096 772.082Z" fill="#00E6D9"/>
<path d="M456.021 735.577C458.113 735.577 459.809 733.881 459.809 731.789C459.809 729.696 458.113 728 456.021 728C453.93 728 452.234 729.696 452.234 731.789C452.234 733.881 453.93 735.577 456.021 735.577Z" fill="#00E6D9"/>
<path d="M464.715 801.126L412.552 807.124L391.779 856.487L423.197 899.852L475.36 893.854L496.105 844.491L464.715 801.126Z" stroke="#09E7DA" stroke-width="4" stroke-miterlimit="10"/>
<path d="M412.38 813.036C415.502 813.036 418.032 810.505 418.032 807.383C418.032 804.26 415.502 801.729 412.38 801.729C409.258 801.729 406.728 804.26 406.728 807.383C406.728 810.505 409.258 813.036 412.38 813.036Z" fill="#00E6D9"/>
<path d="M383.652 724.308C386.774 724.308 389.305 721.776 389.305 718.654C389.305 715.531 386.774 713 383.652 713C380.531 713 378 715.531 378 718.654C378 721.776 380.531 724.308 383.652 724.308Z" fill="#00E6D9"/>
<path d="M92.3719 524.723L136.903 520.647L155.524 479.062L129.644 441.552L85.1413 445.627L66.5199 487.213L92.3719 524.723Z" stroke="#00E6D9" stroke-width="4" stroke-miterlimit="10"/>
<path d="M91.8267 530.864C95.5506 530.864 98.5695 527.845 98.5695 524.12C98.5695 520.395 95.5506 517.376 91.8267 517.376C88.1028 517.376 85.084 520.395 85.084 524.12C85.084 527.845 88.1028 530.864 91.8267 530.864Z" fill="#00E6D9"/>
<path d="M85.1127 449.616C87.1569 449.616 88.8141 447.959 88.8141 445.914C88.8141 443.87 87.1569 442.212 85.1127 442.212C83.0685 442.212 81.4114 443.87 81.4114 445.914C81.4114 447.959 83.0685 449.616 85.1127 449.616Z" fill="#00E6D9"/>
<path d="M157.676 596.299L192.738 563.639L181.233 516.17L134.722 501.361L99.6885 533.993L111.166 581.461L157.676 596.299Z" stroke="#00E6D9" stroke-width="4" stroke-miterlimit="10"/>
<path d="M156.815 603.359C160.809 603.359 164.046 600.121 164.046 596.127C164.046 592.132 160.809 588.894 156.815 588.894C152.822 588.894 149.585 592.132 149.585 596.127C149.585 600.121 152.822 603.359 156.815 603.359Z" fill="#00E6D9"/>
<path d="M99.8319 538.24C102.019 538.24 103.791 536.467 103.791 534.28C103.791 532.092 102.019 530.319 99.8319 530.319C97.6451 530.319 95.8723 532.092 95.8723 534.28C95.8723 536.467 97.6451 538.24 99.8319 538.24Z" fill="#00E6D9"/>
<path d="M330.291 690.404L365.324 657.744L353.847 610.275L307.308 595.438L272.274 628.098L283.751 675.567L330.291 690.404Z" stroke="#00E6D9" stroke-width="4" stroke-miterlimit="10"/>
<path d="M329.401 697.464C333.395 697.464 336.632 694.226 336.632 690.232C336.632 686.238 333.395 683 329.401 683C325.408 683 322.171 686.238 322.171 690.232C322.171 694.226 325.408 697.464 329.401 697.464Z" fill="#00E6D9"/>
<path d="M272.446 632.345C274.633 632.345 276.406 630.572 276.406 628.385C276.406 626.197 274.633 624.424 272.446 624.424C270.26 624.424 268.487 626.197 268.487 628.385C268.487 630.572 270.26 632.345 272.446 632.345Z" fill="#00E6D9"/>
<path d="M207.056 747.86L248.259 709.432L234.773 653.612L180.028 636.162L138.796 674.562L152.311 730.411L207.056 747.86Z" stroke="#00E6D9" stroke-width="4" stroke-miterlimit="10"/>
<path d="M206.023 756.154C210.714 756.154 214.516 752.351 214.516 747.659C214.516 742.968 210.714 739.164 206.023 739.164C201.332 739.164 197.53 742.968 197.53 747.659C197.53 752.351 201.332 756.154 206.023 756.154Z" fill="#00E6D9"/>
<path d="M138.997 679.584C141.58 679.584 143.674 677.49 143.674 674.906C143.674 672.323 141.58 670.228 138.997 670.228C136.414 670.228 134.32 672.323 134.32 674.906C134.32 677.49 136.414 679.584 138.997 679.584Z" fill="#00E6D9"/>
<path d="M216.324 804.054L241.229 751.591L207.056 703.233L148.007 707.337L123.102 759.799L157.274 808.158L216.324 804.054Z" stroke="#00E6D9" stroke-width="4" stroke-miterlimit="10"/>
<path d="M215.262 813.008C220.095 813.008 224.013 809.089 224.013 804.254C224.013 799.42 220.095 795.501 215.262 795.501C210.429 795.501 206.511 799.42 206.511 804.254C206.511 809.089 210.429 813.008 215.262 813.008Z" fill="#00E6D9"/>
<path d="M123.417 764.85C126.079 764.85 128.238 762.692 128.238 760.029C128.238 757.366 126.079 755.207 123.417 755.207C120.755 755.207 118.597 757.366 118.597 760.029C118.597 762.692 120.755 764.85 123.417 764.85Z" fill="#00E6D9"/>
<path d="M104.767 744.129L121.237 713.134L101.927 683L66.1469 683.861L49.6774 714.885L68.9875 745.019L104.767 744.129Z" stroke="#00E6D9" stroke-width="4" stroke-miterlimit="10"/>
<path d="M104.136 749.553C107.067 749.553 109.444 747.176 109.444 744.244C109.444 741.312 107.067 738.935 104.136 738.935C101.204 738.935 98.8276 741.312 98.8276 744.244C98.8276 747.176 101.204 749.553 104.136 749.553Z" fill="#00E6D9"/>
<path d="M49.8782 717.927C51.4787 717.927 52.7761 716.629 52.7761 715.028C52.7761 713.427 51.4787 712.13 49.8782 712.13C48.2777 712.13 46.9802 713.427 46.9802 715.028C46.9802 716.629 48.2777 717.927 49.8782 717.927Z" fill="#00E6D9"/>
<path d="M73.3774 743.268L106.632 754.461L133.23 730.497L126.545 695.34L93.29 684.119L66.692 708.083L73.3774 743.268Z" stroke="#00E6D9" stroke-width="4" stroke-miterlimit="10"/>
<path d="M73.1765 747.946C76.1081 747.946 78.4846 745.569 78.4846 742.637C78.4846 739.705 76.1081 737.328 73.1765 737.328C70.2449 737.328 67.8684 739.705 67.8684 742.637C67.8684 745.569 70.2449 747.946 73.1765 747.946Z" fill="#00E6D9"/>
<path d="M93.1753 687.218C94.7758 687.218 96.0732 685.921 96.0732 684.32C96.0732 682.719 94.7758 681.421 93.1753 681.421C91.5748 681.421 90.2773 682.719 90.2773 684.32C90.2773 685.921 91.5748 687.218 93.1753 687.218Z" fill="#00E6D9"/>
<g opacity="0.24">
<path d="M-2.08399 757.675L17.6565 764.305L33.4374 750.099L29.4778 729.206L9.73733 722.547L-6.04358 736.782L-2.08399 757.675Z" stroke="#00E6D9" stroke-width="4" stroke-miterlimit="10"/>
<path d="M-2.19882 760.459C-0.455714 760.459 0.957375 759.046 0.957375 757.302C0.957375 755.559 -0.455714 754.145 -2.19882 754.145C-3.94194 754.145 -5.35498 755.559 -5.35498 757.302C-5.35498 759.046 -3.94194 760.459 -2.19882 760.459Z" fill="#00E6D9"/>
<path d="M9.65126 724.413C10.602 724.413 11.3728 723.642 11.3728 722.691C11.3728 721.74 10.602 720.969 9.65126 720.969C8.70047 720.969 7.92969 721.74 7.92969 722.691C7.92969 723.642 8.70047 724.413 9.65126 724.413Z" fill="#00E6D9"/>
</g>
<g opacity="0.24">
<path d="M-10.0606 797.137L9.6799 803.795L25.4608 789.56L21.5013 768.696L1.76077 762.038L-14.0201 776.273L-10.0606 797.137Z" stroke="#00E6D9" stroke-width="4" stroke-miterlimit="10"/>
<path d="M1.70334 763.874C2.65413 763.874 3.42491 763.103 3.42491 762.152C3.42491 761.201 2.65413 760.431 1.70334 760.431C0.752551 760.431 -0.0181885 761.201 -0.0181885 762.152C-0.0181885 763.103 0.752551 763.874 1.70334 763.874Z" fill="#00E6D9"/>
</g>
<g opacity="0.24">
<path d="M31.974 791.627L60.2074 801.126L82.7598 780.807L77.1074 750.96L48.8739 741.46L26.3215 761.779L31.974 791.627Z" stroke="#00E6D9" stroke-width="4" stroke-miterlimit="10"/>
<path d="M31.8305 795.616C34.3184 795.616 36.3353 793.599 36.3353 791.11C36.3353 788.622 34.3184 786.604 31.8305 786.604C29.3426 786.604 27.3258 788.622 27.3258 791.11C27.3258 793.599 29.3426 795.616 31.8305 795.616Z" fill="#00E6D9"/>
<path d="M48.7878 744.101C50.1505 744.101 51.2553 742.996 51.2553 741.632C51.2553 740.269 50.1505 739.164 48.7878 739.164C47.425 739.164 46.3202 740.269 46.3202 741.632C46.3202 742.996 47.425 744.101 48.7878 744.101Z" fill="#00E6D9"/>
</g>
<g opacity="0.24">
<path d="M112.227 879.475L120.462 860.333L107.579 843.429L86.4325 845.696L78.1978 864.839L91.0807 881.714L112.227 879.475Z" stroke="#00E6D9" stroke-width="4" stroke-miterlimit="10"/>
<path d="M111.825 882.719C113.569 882.719 114.982 881.305 114.982 879.562C114.982 877.818 113.569 876.405 111.825 876.405C110.082 876.405 108.669 877.818 108.669 879.562C108.669 881.305 110.082 882.719 111.825 882.719Z" fill="#00E6D9"/>
<path d="M78.3125 866.618C79.2633 866.618 80.034 865.847 80.034 864.896C80.034 863.945 79.2633 863.174 78.3125 863.174C77.3617 863.174 76.5909 863.945 76.5909 864.896C76.5909 865.847 77.3617 866.618 78.3125 866.618Z" fill="#00E6D9"/>
</g>
<g opacity="0.24">
<path d="M150.905 890.64L159.14 871.497L146.257 854.593L125.139 856.86L116.904 875.974L129.787 892.878L150.905 890.64Z" stroke="#00E6D9" stroke-width="4" stroke-miterlimit="10"/>
<path d="M150.532 893.883C152.275 893.883 153.688 892.469 153.688 890.726C153.688 888.982 152.275 887.569 150.532 887.569C148.789 887.569 147.375 888.982 147.375 890.726C147.375 892.469 148.789 893.883 150.532 893.883Z" fill="#00E6D9"/>
<path d="M117.019 877.782C117.97 877.782 118.74 877.011 118.74 876.06C118.74 875.109 117.97 874.338 117.019 874.338C116.068 874.338 115.297 875.109 115.297 876.06C115.297 877.011 116.068 877.782 117.019 877.782Z" fill="#00E6D9"/>
</g>
<g opacity="0.24">
<path d="M148.839 848.279L160.603 820.929L142.182 796.764L111.998 799.978L100.234 827.329L118.654 851.494L148.839 848.279Z" stroke="#00E6D9" stroke-width="4" stroke-miterlimit="10"/>
<path d="M148.294 852.9C150.782 852.9 152.798 850.883 152.798 848.394C152.798 845.906 150.782 843.888 148.294 843.888C145.806 843.888 143.789 845.906 143.789 848.394C143.789 850.883 145.806 852.9 148.294 852.9Z" fill="#00E6D9"/>
<path d="M100.406 829.912C101.769 829.912 102.873 828.807 102.873 827.444C102.873 826.08 101.769 824.975 100.406 824.975C99.043 824.975 97.9382 826.08 97.9382 827.444C97.9382 828.807 99.043 829.912 100.406 829.912Z" fill="#00E6D9"/>
</g>
<path d="M123.503 630.049L107.636 662.91L128.897 693.446L166.054 691.122L181.921 658.261L160.66 627.696L123.503 630.049Z" stroke="#00E6D9" stroke-width="4" stroke-miterlimit="10"/>
<path d="M124.192 635.416C127.234 635.416 129.701 632.949 129.701 629.906C129.701 626.863 127.234 624.396 124.192 624.396C121.149 624.396 118.683 626.863 118.683 629.906C118.683 632.949 121.149 635.416 124.192 635.416Z" fill="#00E6D9"/>
<path d="M181.72 661.102C183.384 661.102 184.733 659.753 184.733 658.089C184.733 656.424 183.384 655.075 181.72 655.075C180.057 655.075 178.708 656.424 178.708 658.089C178.708 659.753 180.057 661.102 181.72 661.102Z" fill="#00E6D9"/>
<path d="M140.518 610.046L106.345 597.217L77.8821 621.21L83.5919 657.974L117.765 670.802L146.228 646.838L140.518 610.046Z" stroke="#00E6D9" stroke-width="4" stroke-miterlimit="10"/>
<path d="M140.719 616.216C143.761 616.216 146.228 613.749 146.228 610.706C146.228 607.663 143.761 605.196 140.719 605.196C137.676 605.196 135.21 607.663 135.21 610.706C135.21 613.749 137.676 616.216 140.719 616.216Z" fill="#00E6D9"/>
<path d="M77.7961 624.166C79.4599 624.166 80.8088 622.817 80.8088 621.153C80.8088 619.488 79.4599 618.139 77.7961 618.139C76.1322 618.139 74.7833 619.488 74.7833 621.153C74.7833 622.817 76.1322 624.166 77.7961 624.166Z" fill="#00E6D9"/>
<path d="M340.735 864.179L404.174 805.087L383.401 719.161L299.188 692.298L235.72 751.419L256.522 837.345L340.735 864.179Z" stroke="#00E6D9" stroke-width="4" stroke-miterlimit="10"/>
<path d="M339.157 876.979C346.383 876.979 352.24 871.119 352.24 863.892C352.24 856.664 346.383 850.805 339.157 850.805C331.931 850.805 326.073 856.664 326.073 863.892C326.073 871.119 331.931 876.979 339.157 876.979Z" fill="#00E6D9"/>
<path d="M236.036 759.11C240.013 759.11 243.237 755.885 243.237 751.907C243.237 747.928 240.013 744.703 236.036 744.703C232.058 744.703 228.834 747.928 228.834 751.907C228.834 755.885 232.058 759.11 236.036 759.11Z" fill="#00E6D9"/>
<path d="M72.2584 389.377L62.3021 409.466L75.1564 428.379L97.967 427.174L107.952 407.113L95.069 388.2L72.2584 389.377Z" stroke="#00E6D9" stroke-width="4" stroke-miterlimit="10"/>
<path d="M72.4306 394.198C75.6633 394.198 78.2838 391.577 78.2838 388.343C78.2838 385.11 75.6633 382.489 72.4306 382.489C69.1979 382.489 66.5773 385.11 66.5773 388.343C66.5773 391.577 69.1979 394.198 72.4306 394.198Z" fill="#00E6D9"/>
<path d="M74.5539 431.019C75.9325 431.019 77.0501 429.901 77.0501 428.522C77.0501 427.143 75.9325 426.026 74.5539 426.026C73.1752 426.026 72.0576 427.143 72.0576 428.522C72.0576 429.901 73.1752 431.019 74.5539 431.019Z" fill="#00E6D9"/>
<path d="M107.78 409.179C109.158 409.179 110.276 408.061 110.276 406.682C110.276 405.303 109.158 404.185 107.78 404.185C106.401 404.185 105.284 405.303 105.284 406.682C105.284 408.061 106.401 409.179 107.78 409.179Z" fill="#00E6D9"/>
<g opacity="0.15">
<path d="M240.253 571.531L230.297 591.621L243.151 610.505L265.991 609.328L275.947 589.239L263.093 570.355L240.253 571.531Z" stroke="#00E6D9" stroke-width="4" stroke-miterlimit="10"/>
<path d="M240.426 576.353C243.658 576.353 246.279 573.732 246.279 570.498C246.279 567.265 243.658 564.644 240.426 564.644C237.193 564.644 234.572 567.265 234.572 570.498C234.572 573.732 237.193 576.353 240.426 576.353Z" fill="#00E6D9"/>
<path d="M242.549 613.145C243.927 613.145 245.045 612.028 245.045 610.649C245.045 609.27 243.927 608.152 242.549 608.152C241.17 608.152 240.052 609.27 240.052 610.649C240.052 612.028 241.17 613.145 242.549 613.145Z" fill="#00E6D9"/>
<path d="M275.803 591.334C277.182 591.334 278.3 590.216 278.3 588.837C278.3 587.458 277.182 586.34 275.803 586.34C274.425 586.34 273.307 587.458 273.307 588.837C273.307 590.216 274.425 591.334 275.803 591.334Z" fill="#00E6D9"/>
</g>
<path d="M32.1462 494.99L40.6967 531.926L77.7674 542.775L106.288 516.716L97.7374 479.808L60.6667 468.96L32.1462 494.99Z" stroke="#00E6D9" stroke-width="4" stroke-miterlimit="10"/>
<path d="M62.1012 474.47C65.318 474.47 67.9258 471.862 67.9258 468.644C67.9258 465.427 65.318 462.818 62.1012 462.818C58.8844 462.818 56.2766 465.427 56.2766 468.644C56.2766 471.862 58.8844 474.47 62.1012 474.47Z" fill="#00E6D9"/>
<path d="M98.1104 484.744C100.44 484.744 102.328 482.856 102.328 480.526C102.328 478.196 100.44 476.307 98.1104 476.307C95.781 476.307 93.8926 478.196 93.8926 480.526C93.8926 482.856 95.781 484.744 98.1104 484.744Z" fill="#00E6D9"/>
</g>
<path d="M1346.67 4372.83L1383.79 4297.12L1335.06 4226.27L1249.2 4231.14L1212.12 4306.84L1260.82 4377.68L1346.67 4372.83Z" stroke="#00E6D9" stroke-width="4" stroke-miterlimit="10"/>
<path d="M1238.37 4222.83C1234.19 4228.97 1235.78 4237.34 1241.92 4241.53C1248.06 4245.71 1256.44 4244.13 1260.62 4237.98C1264.8 4231.84 1263.21 4223.47 1257.07 4219.29C1250.93 4215.1 1242.55 4216.69 1238.37 4222.83Z" fill="#00E6D9"/>
<path d="M1252.77 4373.76C1249.95 4377.89 1251.02 4383.53 1255.16 4386.35C1259.3 4389.17 1264.94 4388.1 1267.76 4383.97C1270.58 4379.83 1269.51 4374.19 1265.37 4371.37C1261.23 4368.55 1255.59 4369.62 1252.77 4373.76Z" fill="#00E6D9"/>
<g filter="url(#filter1_f_819_1800)">
<path d="M891.478 4633.7L911.763 4593.56L886.213 4555.47L840.401 4557.53L820.14 4597.67L845.667 4635.75L891.478 4633.7Z" stroke="#02E6D9" stroke-width="4" stroke-miterlimit="10"/>
</g>
<g filter="url(#filter2_f_819_1800)">
<path d="M907.646 4590.59C906.138 4592.8 906.711 4595.82 908.925 4597.32C911.139 4598.83 914.156 4598.26 915.663 4596.05C917.171 4593.83 916.598 4590.82 914.384 4589.31C912.17 4587.8 909.153 4588.37 907.646 4590.59Z" fill="#00E6D9"/>
</g>
<g filter="url(#filter3_f_819_1800)">
<path d="M879.837 4629.89C878.33 4632.1 878.902 4635.12 881.116 4636.63C883.33 4638.13 886.347 4637.56 887.855 4635.35C889.362 4633.13 888.79 4630.12 886.576 4628.61C884.362 4627.1 881.345 4627.67 879.837 4629.89Z" fill="#00E6D9"/>
</g>
<g filter="url(#filter4_f_819_1800)">
<path d="M964.817 4547.08L946.109 4517.29L910.267 4518.98L893.139 4550.5L911.846 4580.29L947.689 4578.6L964.817 4547.08Z" stroke="#00E6D9" stroke-width="4" stroke-miterlimit="10"/>
</g>
<g filter="url(#filter5_f_819_1800)">
<path d="M942.764 4515.11C941.586 4516.84 942.034 4519.2 943.763 4520.38C945.492 4521.55 947.848 4521.11 949.026 4519.38C950.203 4517.65 949.756 4515.29 948.027 4514.12C946.298 4512.94 943.941 4513.39 942.764 4515.11Z" fill="#00E6D9"/>
</g>
<g filter="url(#filter6_f_819_1800)">
<path d="M944.832 4576.93C943.654 4578.66 944.101 4581.01 945.831 4582.19C947.56 4583.37 949.916 4582.92 951.094 4581.19C952.271 4579.46 951.824 4577.11 950.095 4575.93C948.365 4574.75 946.009 4575.2 944.832 4576.93Z" fill="#00E6D9"/>
</g>
<g filter="url(#filter7_f_819_1800)">
<path d="M895.268 4546.86L919.674 4500.37L890.569 4455.41L837.042 4456.97L812.635 4503.46L841.756 4548.39L895.268 4546.86Z" stroke="#09E7DA" stroke-width="4" stroke-miterlimit="10"/>
</g>
<g filter="url(#filter8_f_819_1800)">
<path d="M905.378 4497.25C903.621 4499.83 904.288 4503.35 906.869 4505.11C909.45 4506.87 912.966 4506.2 914.724 4503.62C916.481 4501.04 915.813 4497.52 913.233 4495.76C910.652 4494.01 907.135 4494.67 905.378 4497.25Z" fill="#00E6D9"/>
</g>
<g filter="url(#filter9_f_819_1800)">
<path d="M994.884 4523.46C993.127 4526.04 993.795 4529.55 996.375 4531.31C998.956 4533.07 1002.47 4532.4 1004.23 4529.82C1005.99 4527.24 1005.32 4523.73 1002.74 4521.97C1000.16 4520.21 996.642 4520.88 994.884 4523.46Z" fill="#00E6D9"/>
</g>
<path d="M1227.89 4408.75L1235.15 4456.11L1280.86 4473.32L1319.28 4443.22L1312.03 4395.89L1266.34 4378.66L1227.89 4408.75Z" stroke="#00E6D9" stroke-width="4" stroke-miterlimit="10"/>
<path d="M1222.54 4404.06C1220.29 4407.36 1221.15 4411.86 1224.45 4414.11C1227.75 4416.36 1232.25 4415.5 1234.5 4412.2C1236.75 4408.9 1235.89 4404.41 1232.59 4402.16C1229.29 4399.91 1224.79 4400.76 1222.54 4404.06Z" fill="#00E6D9"/>
<g filter="url(#filter10_f_819_1800)">
<path d="M1052.94 4498.44L1060.22 4545.78L1105.91 4563.02L1144.37 4532.9L1137.1 4485.56L1091.41 4468.33L1052.94 4498.44Z" stroke="#00E6D9" stroke-width="4" stroke-miterlimit="10"/>
</g>
<g filter="url(#filter11_f_819_1800)">
<path d="M1047.61 4493.73C1045.36 4497.03 1046.22 4501.53 1049.52 4503.78C1052.82 4506.03 1057.32 4505.17 1059.57 4501.87C1061.81 4498.57 1060.96 4494.07 1057.66 4491.83C1054.36 4489.58 1049.86 4490.43 1047.61 4493.73Z" fill="#00E6D9"/>
</g>
<g filter="url(#filter12_f_819_1800)">
<path d="M1133.49 4483.31C1132.26 4485.12 1132.73 4487.58 1134.54 4488.82C1136.35 4490.05 1138.81 4489.58 1140.04 4487.77C1141.27 4485.97 1140.8 4483.5 1139 4482.27C1137.19 4481.04 1134.72 4481.51 1133.49 4483.31Z" fill="#00E6D9"/>
</g>
<path d="M1074.83 4364.24L1083.4 4419.93L1137.12 4440.21L1182.36 4404.78L1173.84 4349.09L1120.07 4328.82L1074.83 4364.24Z" stroke="#00E6D9" stroke-width="4" stroke-miterlimit="10"/>
<path d="M1068.56 4358.72C1065.92 4362.6 1066.92 4367.88 1070.8 4370.52C1074.67 4373.16 1079.96 4372.16 1082.6 4368.28C1085.24 4364.41 1084.24 4359.12 1080.36 4356.48C1076.48 4353.84 1071.2 4354.84 1068.56 4358.72Z" fill="#00E6D9"/>
<path d="M1169.57 4346.43C1168.12 4348.56 1168.67 4351.47 1170.81 4352.92C1172.94 4354.38 1175.85 4353.83 1177.3 4351.69C1178.76 4349.56 1178.21 4346.65 1176.07 4345.19C1173.94 4343.74 1171.03 4344.29 1169.57 4346.43Z" fill="#00E6D9"/>
<path d="M1023.17 4340.27L1052.51 4390.39L1111.71 4389.36L1141.56 4338.25L1112.22 4288.13L1053.02 4289.15L1023.17 4340.27Z" stroke="#00E6D9" stroke-width="4" stroke-miterlimit="10"/>
<path d="M1016.37 4334.35C1013.64 4338.35 1014.68 4343.79 1018.67 4346.51C1022.67 4349.23 1028.11 4348.2 1030.83 4344.21C1033.56 4340.21 1032.52 4334.77 1028.53 4332.05C1024.53 4329.32 1019.09 4330.36 1016.37 4334.35Z" fill="#00E6D9"/>
<path d="M1107.87 4285.55C1106.37 4287.75 1106.94 4290.75 1109.14 4292.25C1111.34 4293.75 1114.34 4293.18 1115.84 4290.98C1117.34 4288.78 1116.77 4285.78 1114.57 4284.28C1112.37 4282.78 1109.37 4283.35 1107.87 4285.55Z" fill="#00E6D9"/>
<path d="M1135.49 4281.8L1151.84 4312.86L1187.62 4313.86L1207.05 4283.81L1190.68 4252.73L1154.9 4251.73L1135.49 4281.8Z" stroke="#00E6D9" stroke-width="4" stroke-miterlimit="10"/>
<path d="M1131.37 4278.22C1129.72 4280.65 1130.34 4283.95 1132.77 4285.6C1135.19 4287.25 1138.49 4286.63 1140.14 4284.2C1141.79 4281.78 1141.17 4278.48 1138.74 4276.83C1136.32 4275.18 1133.02 4275.8 1131.37 4278.22Z" fill="#00E6D9"/>
<path d="M1188.05 4251.18C1187.15 4252.51 1187.49 4254.31 1188.81 4255.21C1190.14 4256.11 1191.94 4255.77 1192.84 4254.45C1193.74 4253.12 1193.4 4251.32 1192.08 4250.42C1190.75 4249.52 1188.95 4249.86 1188.05 4251.18Z" fill="#00E6D9"/>
<path d="M1153.88 4256.34L1125.91 4277.53L1130.74 4313L1163.56 4327.26L1191.55 4306.1L1186.72 4270.62L1153.88 4256.34Z" stroke="#00E6D9" stroke-width="4" stroke-miterlimit="10"/>
<path d="M1150.12 4253.54C1148.47 4255.96 1149.1 4259.27 1151.52 4260.92C1153.95 4262.57 1157.25 4261.94 1158.9 4259.52C1160.55 4257.1 1159.92 4253.79 1157.5 4252.14C1155.08 4250.49 1151.77 4251.12 1150.12 4253.54Z" fill="#00E6D9"/>
<path d="M1189.06 4304.26C1188.16 4305.58 1188.5 4307.38 1189.82 4308.28C1191.14 4309.18 1192.95 4308.84 1193.85 4307.52C1194.75 4306.2 1194.41 4304.39 1193.08 4303.49C1191.76 4302.59 1189.96 4302.93 1189.06 4304.26Z" fill="#00E6D9"/>
<g opacity="0.24">
<g filter="url(#filter13_f_819_1800)">
<path d="M1184.45 4185.86L1167.86 4198.44L1170.71 4219.49L1190.21 4227.97L1206.83 4215.41L1203.95 4194.35L1184.45 4185.86Z" stroke="#00E6D9" stroke-width="4" stroke-miterlimit="10"/>
</g>
<g filter="url(#filter14_f_819_1800)">
<path d="M1182.21 4184.2C1181.23 4185.64 1181.6 4187.6 1183.04 4188.59C1184.49 4189.57 1186.45 4189.19 1187.43 4187.75C1188.41 4186.31 1188.04 4184.35 1186.6 4183.37C1185.16 4182.39 1183.19 4182.76 1182.21 4184.2Z" fill="#00E6D9"/>
</g>
<path d="M1205.33 4214.29C1204.8 4215.07 1205 4216.14 1205.79 4216.68C1206.57 4217.21 1207.65 4217.01 1208.18 4216.22C1208.72 4215.44 1208.51 4214.37 1207.73 4213.83C1206.94 4213.3 1205.87 4213.5 1205.33 4214.29Z" fill="#00E6D9"/>
</g>
<g opacity="0.24" filter="url(#filter15_f_819_1800)">
<path d="M1156.32 4157.05L1139.71 4169.62L1142.59 4190.68L1162.06 4199.15L1178.68 4186.58L1175.8 4165.53L1156.32 4157.05Z" stroke="#00E6D9" stroke-width="4" stroke-miterlimit="10"/>
<path d="M1154.09 4155.39C1153.11 4156.83 1153.48 4158.8 1154.92 4159.78C1156.36 4160.76 1158.32 4160.39 1159.31 4158.95C1160.29 4157.51 1159.91 4155.54 1158.47 4154.56C1157.03 4153.58 1155.07 4153.95 1154.09 4155.39Z" fill="#00E6D9"/>
<path d="M1177.19 4185.5C1176.66 4186.29 1176.86 4187.36 1177.65 4187.89C1178.43 4188.43 1179.5 4188.23 1180.04 4187.44C1180.57 4186.66 1180.37 4185.58 1179.59 4185.05C1178.8 4184.51 1177.73 4184.72 1177.19 4185.5Z" fill="#00E6D9"/>
</g>
<g opacity="0.24">
<g filter="url(#filter16_f_819_1800)">
<path d="M1137.22 4194.9L1113.47 4212.89L1117.57 4242.96L1145.42 4255.09L1169.16 4237.11L1165.07 4207.03L1137.22 4194.9Z" stroke="#00E6D9" stroke-width="4" stroke-miterlimit="10"/>
</g>
<g filter="url(#filter17_f_819_1800)">
<path d="M1134 4192.53C1132.6 4194.59 1133.13 4197.39 1135.19 4198.79C1137.24 4200.19 1140.05 4199.66 1141.45 4197.61C1142.85 4195.55 1142.32 4192.75 1140.26 4191.35C1138.2 4189.95 1135.4 4190.48 1134 4192.53Z" fill="#00E6D9"/>
</g>
<path d="M1167.03 4235.55C1166.26 4236.68 1166.55 4238.21 1167.68 4238.98C1168.81 4239.75 1170.34 4239.45 1171.11 4238.33C1171.88 4237.2 1171.59 4235.67 1170.46 4234.9C1169.33 4234.13 1167.8 4234.42 1167.03 4235.55Z" fill="#00E6D9"/>
</g>
<g opacity="0.24" filter="url(#filter18_f_819_1800)">
<path d="M1019.43 4211.78L1030.62 4229.36L1051.84 4228.22L1061.87 4209.47L1050.68 4191.89L1029.48 4193.04L1019.43 4211.78Z" stroke="#00E6D9" stroke-width="4" stroke-miterlimit="10"/>
<path d="M1016.98 4209.62C1016 4211.06 1016.37 4213.02 1017.81 4214C1019.25 4214.98 1021.21 4214.61 1022.19 4213.17C1023.18 4211.73 1022.8 4209.77 1021.36 4208.79C1019.92 4207.8 1017.96 4208.18 1016.98 4209.62Z" fill="#00E6D9"/>
<path d="M1049.15 4190.98C1048.61 4191.77 1048.82 4192.84 1049.6 4193.37C1050.39 4193.91 1051.46 4193.71 1052 4192.92C1052.53 4192.14 1052.33 4191.06 1051.54 4190.53C1050.76 4189.99 1049.68 4190.2 1049.15 4190.98Z" fill="#00E6D9"/>
</g>
<g opacity="0.24" filter="url(#filter19_f_819_1800)">
<path d="M988.431 4237.46L999.617 4255.04L1020.84 4253.91L1030.85 4235.18L1019.69 4217.61L998.469 4218.74L988.431 4237.46Z" stroke="#00E6D9" stroke-width="4" stroke-miterlimit="10"/>
<path d="M985.96 4235.32C984.979 4236.76 985.352 4238.73 986.793 4239.71C988.234 4240.69 990.198 4240.32 991.179 4238.88C992.16 4237.44 991.787 4235.47 990.346 4234.49C988.905 4233.51 986.942 4233.88 985.96 4235.32Z" fill="#00E6D9"/>
<path d="M1018.13 4216.69C1017.6 4217.47 1017.8 4218.55 1018.59 4219.08C1019.37 4219.62 1020.44 4219.41 1020.98 4218.63C1021.51 4217.84 1021.31 4216.77 1020.53 4216.24C1019.74 4215.7 1018.67 4215.9 1018.13 4216.69Z" fill="#00E6D9"/>
</g>
<g opacity="0.24" filter="url(#filter20_f_819_1800)">
<path d="M1024.6 4259.6L1040.59 4284.72L1070.93 4283.09L1085.26 4256.34L1069.28 4231.22L1038.94 4232.84L1024.6 4259.6Z" stroke="#00E6D9" stroke-width="4" stroke-miterlimit="10"/>
<path d="M1021.09 4256.54C1019.69 4258.6 1020.22 4261.4 1022.28 4262.8C1024.34 4264.21 1027.14 4263.67 1028.54 4261.62C1029.94 4259.56 1029.41 4256.76 1027.35 4255.36C1025.3 4253.96 1022.49 4254.49 1021.09 4256.54Z" fill="#00E6D9"/>
<path d="M1067.05 4229.91C1066.28 4231.03 1066.57 4232.57 1067.7 4233.33C1068.83 4234.1 1070.36 4233.81 1071.13 4232.68C1071.9 4231.56 1071.61 4230.02 1070.48 4229.26C1069.35 4228.49 1067.82 4228.78 1067.05 4229.91Z" fill="#00E6D9"/>
</g>
<path d="M1219.23 4361.5L1201.01 4329.89L1163.8 4330.27L1144.81 4362.29L1163.03 4393.91L1200.26 4393.54L1219.23 4361.5Z" stroke="#00E6D9" stroke-width="4" stroke-miterlimit="10"/>
<path d="M1214.41 4359.05C1212.7 4361.57 1213.35 4364.99 1215.86 4366.71C1218.38 4368.42 1221.81 4367.77 1223.52 4365.26C1225.23 4362.74 1224.58 4359.31 1222.07 4357.6C1219.55 4355.89 1216.12 4356.54 1214.41 4359.05Z" fill="#00E6D9"/>
<path d="M1160.8 4392.14C1159.86 4393.52 1160.22 4395.39 1161.59 4396.33C1162.97 4397.26 1164.84 4396.91 1165.78 4395.53C1166.72 4394.16 1166.36 4392.28 1164.98 4391.35C1163.61 4390.41 1161.73 4390.77 1160.8 4392.14Z" fill="#00E6D9"/>
<path d="M1226.19 4386.83L1256.03 4365.81L1252.22 4328.77L1218.62 4312.8L1188.78 4333.82L1192.57 4370.84L1226.19 4386.83Z" stroke="#00E6D9" stroke-width="4" stroke-miterlimit="10"/>
<path d="M1220.98 4383.52C1219.26 4386.03 1219.91 4389.46 1222.43 4391.18C1224.95 4392.89 1228.37 4392.24 1230.09 4389.72C1231.8 4387.21 1231.15 4383.78 1228.63 4382.07C1226.12 4380.36 1222.69 4381.01 1220.98 4383.52Z" fill="#00E6D9"/>
<path d="M1249.83 4327.04C1248.89 4328.41 1249.25 4330.29 1250.62 4331.23C1252 4332.16 1253.87 4331.81 1254.81 4330.43C1255.75 4329.06 1255.39 4327.18 1254.01 4326.25C1252.64 4325.31 1250.76 4325.66 1249.83 4327.04Z" fill="#00E6D9"/>
<g filter="url(#filter21_f_819_1800)">
<path d="M903.44 4409.25L916.568 4494.95L999.28 4526.15L1068.89 4471.67L1055.75 4385.93L973.024 4354.75L903.44 4409.25Z" stroke="#00E6D9" stroke-width="4" stroke-miterlimit="10"/>
</g>
<g filter="url(#filter22_f_819_1800)">
<path d="M893.749 4400.74C889.681 4406.71 891.227 4414.85 897.2 4418.92C903.174 4422.99 911.314 4421.45 915.382 4415.47C919.45 4409.5 917.904 4401.36 911.931 4397.29C905.957 4393.22 897.817 4394.77 893.749 4400.74Z" fill="#00E6D9"/>
</g>
<path d="M1049.22 4381.86C1046.98 4385.15 1047.83 4389.63 1051.12 4391.87C1054.41 4394.11 1058.89 4393.26 1061.13 4389.97C1063.36 4386.68 1062.51 4382.2 1059.23 4379.96C1055.94 4377.72 1051.46 4378.57 1049.22 4381.86Z" fill="#00E6D9"/>
<g opacity="0.15">
<path d="M1213.14 4439.26L1224.7 4420.05L1213.42 4400.18L1190.57 4399.49L1179 4418.7L1190.28 4438.57L1213.14 4439.26Z" stroke="#00E6D9" stroke-width="4" stroke-miterlimit="10"/>
<path d="M1213.36 4434.44C1210.14 4434.18 1207.31 4436.58 1207.05 4439.8C1206.78 4443.02 1209.18 4445.85 1212.4 4446.11C1215.62 4446.37 1218.45 4443.97 1218.71 4440.75C1218.98 4437.53 1216.58 4434.7 1213.36 4434.44Z" fill="#00E6D9"/>
<path d="M1166.19 4469.41C1165.42 4470.55 1165.71 4472.1 1166.85 4472.88C1167.99 4473.66 1169.54 4473.36 1170.32 4472.22C1171.1 4471.08 1170.8 4469.53 1169.66 4468.75C1168.52 4467.98 1166.97 4468.27 1166.19 4469.41Z" fill="#00E6D9"/>
<path d="M1165.5 4509.18C1164.72 4510.31 1165.02 4511.87 1166.16 4512.64C1167.3 4513.42 1168.85 4513.13 1169.63 4511.99C1170.4 4510.85 1170.11 4509.29 1168.97 4508.52C1167.83 4507.74 1166.28 4508.04 1165.5 4509.18Z" fill="#00E6D9"/>
</g>
<g clip-path="url(#clip1_819_1800)">
<path d="M1350.93 6008.21L1415.39 5953.86L1399.31 5869.38L1318.75 5839.28L1254.34 5893.64L1270.4 5978.1L1350.93 6008.21Z" stroke="#00E6D9" stroke-width="4" stroke-miterlimit="10"/>
<path d="M1264.6 5971.26C1260.36 5973.91 1259.07 5979.51 1261.72 5983.75C1264.37 5988 1269.97 5989.29 1274.21 5986.64C1278.46 5983.99 1279.75 5978.39 1277.1 5974.14C1274.44 5969.9 1268.85 5968.61 1264.6 5971.26Z" fill="#00E6D9"/>
<g filter="url(#filter23_f_819_1800)">
<path d="M829.235 6063.74L863.96 6035.17L855.909 5990.02L813.146 5973.46L778.436 6002.05L786.472 6047.18L829.235 6063.74Z" stroke="url(#paint0_linear_819_1800)" stroke-width="4" stroke-miterlimit="10"/>
</g>
<g filter="url(#filter24_f_819_1800)">
<path d="M861.39 6030.79C859.119 6032.21 858.429 6035.2 859.848 6037.47C861.268 6039.74 864.259 6040.44 866.531 6039.02C868.802 6037.6 869.492 6034.61 868.073 6032.33C866.653 6030.06 863.661 6029.37 861.39 6030.79Z" fill="#00E6D9"/>
</g>
<g filter="url(#filter25_f_819_1800)">
<path d="M820.112 6055.57C817.841 6056.99 817.151 6059.98 818.57 6062.25C819.99 6064.52 822.982 6065.22 825.253 6063.8C827.524 6062.38 828.214 6059.39 826.795 6057.11C825.375 6054.84 822.383 6054.15 820.112 6055.57Z" fill="#00E6D9"/>
</g>
<g filter="url(#filter26_f_819_1800)">
<path d="M931.24 6013.98L926.109 5979.18L892.617 5966.3L864.249 5988.26L869.38 6023.06L902.872 6035.94L931.24 6013.98Z" stroke="#00E6D9" stroke-width="4" stroke-miterlimit="10"/>
</g>
<g filter="url(#filter27_f_819_1800)">
<path d="M923.922 5975.84C922.148 5976.95 921.609 5979.29 922.717 5981.06C923.826 5982.84 926.163 5983.38 927.937 5982.27C929.711 5981.16 930.25 5978.82 929.141 5977.05C928.033 5975.28 925.696 5974.74 923.922 5975.84Z" fill="#00E6D9"/>
</g>
<g filter="url(#filter28_f_819_1800)">
<path d="M900.928 6033.26C899.154 6034.37 898.615 6036.7 899.724 6038.48C900.832 6040.25 903.169 6040.79 904.943 6039.68C906.717 6038.58 907.256 6036.24 906.147 6034.47C905.039 6032.69 902.702 6032.15 900.928 6033.26Z" fill="#00E6D9"/>
</g>
<g filter="url(#filter29_f_819_1800)">
<path d="M858.819 5982.28L899.878 5949.55L891.336 5896.68L841.712 5876.55L800.654 5909.28L809.22 5962.14L858.819 5982.28Z" stroke="url(#paint1_linear_819_1800)" stroke-width="4" stroke-miterlimit="10"/>
</g>
<g filter="url(#filter30_f_819_1800)">
<path d="M896.891 5944.44C894.243 5946.1 893.438 5949.59 895.093 5952.23C896.748 5954.88 900.235 5955.69 902.883 5954.03C905.53 5952.38 906.335 5948.89 904.68 5946.24C903.025 5943.59 899.538 5942.79 896.891 5944.44Z" fill="#00E6D9"/>
</g>
<g filter="url(#filter31_f_819_1800)">
<path d="M968.272 6004.47C965.625 6006.12 964.82 6009.61 966.475 6012.26C968.129 6014.9 971.617 6015.71 974.264 6014.06C976.912 6012.4 977.716 6008.91 976.062 6006.27C974.407 6003.62 970.92 6002.81 968.272 6004.47Z" fill="#00E6D9"/>
</g>
<path d="M1321.06 6019.37L1285.45 6046.42L1291.7 6091.56L1333.52 6109.65L1369.1 6082.61L1362.86 6037.48L1321.06 6019.37Z" stroke="#00E6D9" stroke-width="4" stroke-miterlimit="10"/>
<path d="M1227.75 5993.27L1215.32 6039.55L1250.23 6073.71L1297.52 6061.62L1309.94 6015.38L1275.05 5981.21L1227.75 5993.27Z" stroke="#00E6D9" stroke-width="4" stroke-miterlimit="10"/>
<path d="M1224.73 5986.83C1221.35 5988.95 1220.32 5993.41 1222.43 5996.8C1224.55 6000.18 1229.01 6001.21 1232.4 5999.1C1235.79 5996.98 1236.81 5992.52 1234.7 5989.13C1232.58 5985.75 1228.12 5984.72 1224.73 5986.83Z" fill="#00E6D9"/>
<g filter="url(#filter32_f_819_1800)">
<path d="M1031.49 6004.94L1019.09 6051.2L1053.98 6085.38L1101.31 6073.3L1113.71 6027.04L1078.82 5992.86L1031.49 6004.94Z" stroke="#00E6D9" stroke-width="4" stroke-miterlimit="10"/>
</g>
<g filter="url(#filter33_f_819_1800)">
<path d="M1028.5 5998.48C1025.12 6000.6 1024.09 6005.06 1026.21 6008.45C1028.32 6011.83 1032.78 6012.87 1036.17 6010.75C1039.56 6008.63 1040.59 6004.17 1038.47 6000.78C1036.35 5997.4 1031.89 5996.37 1028.5 5998.48Z" fill="#00E6D9"/>
</g>
<g filter="url(#filter34_f_819_1800)">
<path d="M1111.31 6023.52C1109.46 6024.68 1108.89 6027.13 1110.05 6028.98C1111.21 6030.84 1113.66 6031.4 1115.51 6030.24C1117.36 6029.08 1117.93 6026.64 1116.77 6024.79C1115.61 6022.93 1113.17 6022.37 1111.31 6023.52Z" fill="#00E6D9"/>
</g>
<path d="M1105.55 5890.91L1090.98 5945.33L1131.99 5985.53L1187.67 5971.31L1202.28 5916.9L1161.23 5876.7L1105.55 5890.91Z" stroke="#00E6D9" stroke-width="4" stroke-miterlimit="10"/>
<path d="M1102.03 5883.33C1098.06 5885.82 1096.85 5891.06 1099.33 5895.03C1101.82 5899.01 1107.06 5900.22 1111.04 5897.74C1115.02 5895.25 1116.22 5890.01 1113.74 5886.03C1111.25 5882.05 1106.01 5880.84 1102.03 5883.33Z" fill="#00E6D9"/>
<path d="M1199.45 5912.75C1197.26 5914.12 1196.59 5917 1197.96 5919.19C1199.33 5921.38 1202.22 5922.05 1204.41 5920.68C1206.6 5919.31 1207.27 5916.43 1205.9 5914.24C1204.53 5912.04 1201.64 5911.38 1199.45 5912.75Z" fill="#00E6D9"/>
<path d="M1067.92 5848.17L1074.6 5905.86L1129.2 5928.76L1177.1 5893.99L1170.42 5836.3L1115.82 5813.4L1067.92 5848.17Z" stroke="#00E6D9" stroke-width="4" stroke-miterlimit="10"/>
<path d="M1064.07 5840.01C1059.97 5842.57 1058.73 5847.97 1061.29 5852.07C1063.85 5856.17 1069.25 5857.42 1073.35 5854.86C1077.45 5852.3 1078.69 5846.9 1076.13 5842.8C1073.57 5838.7 1068.17 5837.45 1064.07 5840.01Z" fill="#00E6D9"/>
<path d="M1167.48 5832.18C1165.22 5833.59 1164.54 5836.57 1165.95 5838.82C1167.36 5841.08 1170.33 5841.77 1172.59 5840.36C1174.85 5838.95 1175.53 5835.97 1174.12 5833.72C1172.71 5831.46 1169.74 5830.77 1167.48 5832.18Z" fill="#00E6D9"/>
<path d="M1194.28 5839.87L1196.73 5874.88L1229.08 5890.21L1258.97 5870.52L1256.49 5835.48L1224.15 5820.16L1194.28 5839.87Z" stroke="#00E6D9" stroke-width="4" stroke-miterlimit="10"/>
<path d="M1191.94 5834.94C1189.45 5836.49 1188.7 5839.76 1190.25 5842.25C1191.8 5844.74 1195.08 5845.49 1197.56 5843.94C1200.05 5842.39 1200.81 5839.11 1199.25 5836.63C1197.7 5834.14 1194.42 5833.38 1191.94 5834.94Z" fill="#00E6D9"/>
<path d="M1254.71 5833C1253.35 5833.85 1252.94 5835.64 1253.79 5837C1254.64 5838.36 1256.42 5838.77 1257.78 5837.92C1259.14 5837.07 1259.55 5835.28 1258.7 5833.93C1257.86 5832.57 1256.07 5832.16 1254.71 5833Z" fill="#00E6D9"/>
<path d="M1221.35 5823.97L1187.22 5832.1L1177.36 5866.51L1201.66 5892.79L1235.81 5884.68L1245.67 5850.26L1221.35 5823.97Z" stroke="#00E6D9" stroke-width="4" stroke-miterlimit="10"/>
<path d="M1219.04 5819.89C1216.56 5821.45 1215.8 5824.72 1217.36 5827.21C1218.91 5829.69 1222.19 5830.45 1224.67 5828.9C1227.16 5827.34 1227.91 5824.07 1226.36 5821.58C1224.81 5819.1 1221.53 5818.34 1219.04 5819.89Z" fill="#00E6D9"/>
<path d="M1234.27 5881.99C1232.91 5882.84 1232.5 5884.63 1233.34 5885.98C1234.19 5887.34 1235.98 5887.75 1237.34 5886.91C1238.69 5886.06 1239.11 5884.27 1238.26 5882.91C1237.41 5881.56 1235.62 5881.14 1234.27 5881.99Z" fill="#00E6D9"/>
<g opacity="0.24">
<g filter="url(#filter35_f_819_1800)">
<path d="M1277.71 5771.76L1257.46 5776.6L1251.6 5797.01L1266.03 5812.63L1286.3 5807.81L1292.14 5787.38L1277.71 5771.76Z" stroke="#00E6D9" stroke-width="4" stroke-miterlimit="10"/>
</g>
<g filter="url(#filter36_f_819_1800)">
<path d="M1276.34 5769.34C1274.86 5770.26 1274.41 5772.21 1275.33 5773.69C1276.26 5775.17 1278.2 5775.62 1279.68 5774.69C1281.16 5773.77 1281.61 5771.82 1280.68 5770.34C1279.76 5768.86 1277.81 5768.41 1276.34 5769.34Z" fill="#00E6D9"/>
</g>
</g>
<g opacity="0.24" filter="url(#filter37_f_819_1800)">
<path d="M1263.57 5734.07L1243.3 5738.88L1237.46 5759.32L1251.87 5774.91L1272.14 5770.1L1277.98 5749.66L1263.57 5734.07Z" stroke="#00E6D9" stroke-width="4" stroke-miterlimit="10"/>
<path d="M1262.19 5731.65C1260.71 5732.57 1260.26 5734.52 1261.18 5736C1262.11 5737.47 1264.06 5737.92 1265.53 5737C1267.01 5736.08 1267.46 5734.13 1266.54 5732.65C1265.61 5731.17 1263.67 5730.72 1262.19 5731.65Z" fill="#00E6D9"/>
<path d="M1271.22 5768.51C1270.41 5769.01 1270.16 5770.08 1270.67 5770.88C1271.17 5771.69 1272.23 5771.93 1273.04 5771.43C1273.85 5770.93 1274.09 5769.86 1273.59 5769.06C1273.08 5768.25 1272.02 5768.01 1271.22 5768.51Z" fill="#00E6D9"/>
</g>
<g opacity="0.24">
<g filter="url(#filter38_f_819_1800)">
<path d="M1230.84 5761.02L1201.86 5767.92L1193.5 5797.1L1214.11 5819.42L1243.09 5812.51L1251.45 5783.33L1230.84 5761.02Z" stroke="#00E6D9" stroke-width="4" stroke-miterlimit="10"/>
</g>
<g filter="url(#filter39_f_819_1800)">
<path d="M1228.85 5757.56C1226.74 5758.87 1226.1 5761.65 1227.41 5763.76C1228.73 5765.88 1231.51 5766.52 1233.62 5765.2C1235.73 5763.88 1236.37 5761.1 1235.05 5758.99C1233.74 5756.88 1230.96 5756.24 1228.85 5757.56Z" fill="#00E6D9"/>
</g>
<path d="M1241.76 5810.23C1240.61 5810.95 1240.26 5812.47 1240.98 5813.63C1241.7 5814.79 1243.22 5815.14 1244.38 5814.42C1245.54 5813.69 1245.89 5812.17 1245.17 5811.02C1244.44 5809.86 1242.92 5809.51 1241.76 5810.23Z" fill="#00E6D9"/>
</g>
<g opacity="0.24" filter="url(#filter40_f_819_1800)">
<path d="M1116.23 5729.04L1119.39 5749.64L1139.27 5757.15L1156 5744.02L1152.84 5723.42L1132.97 5715.94L1116.23 5729.04Z" stroke="#00E6D9" stroke-width="4" stroke-miterlimit="10"/>
<path d="M1114.85 5726.08C1113.37 5727 1112.92 5728.95 1113.85 5730.43C1114.77 5731.91 1116.72 5732.36 1118.2 5731.43C1119.67 5730.51 1120.12 5728.56 1119.2 5727.08C1118.28 5725.61 1116.33 5725.16 1114.85 5726.08Z" fill="#00E6D9"/>
<path d="M1151.8 5721.98C1151 5722.48 1150.75 5723.54 1151.25 5724.35C1151.76 5725.15 1152.82 5725.4 1153.63 5724.9C1154.43 5724.39 1154.68 5723.33 1154.17 5722.52C1153.67 5721.72 1152.61 5721.47 1151.8 5721.98Z" fill="#00E6D9"/>
</g>
<g opacity="0.24" filter="url(#filter41_f_819_1800)">
<path d="M1077.51 5740.07L1080.67 5760.67L1100.55 5768.18L1117.26 5755.06L1114.12 5734.49L1094.23 5726.98L1077.51 5740.07Z" stroke="#00E6D9" stroke-width="4" stroke-miterlimit="10"/>
<path d="M1076.11 5737.12C1074.63 5738.05 1074.18 5739.99 1075.11 5741.47C1076.03 5742.95 1077.98 5743.4 1079.45 5742.48C1080.93 5741.55 1081.38 5739.61 1080.46 5738.13C1079.53 5736.65 1077.59 5736.2 1076.11 5737.12Z" fill="#00E6D9"/>
<path d="M1113.06 5733.02C1112.25 5733.52 1112.01 5734.58 1112.51 5735.39C1113.02 5736.2 1114.08 5736.44 1114.89 5735.94C1115.69 5735.44 1115.94 5734.37 1115.43 5733.57C1114.93 5732.76 1113.87 5732.51 1113.06 5733.02Z" fill="#00E6D9"/>
</g>
<g opacity="0.24" filter="url(#filter42_f_819_1800)">
<path d="M1101.71 5774.9L1106.23 5804.33L1134.65 5815.06L1158.55 5796.34L1154.03 5766.91L1125.61 5756.18L1101.71 5774.9Z" stroke="#00E6D9" stroke-width="4" stroke-miterlimit="10"/>
<path d="M1099.72 5770.69C1097.61 5772.01 1096.97 5774.79 1098.29 5776.9C1099.61 5779.01 1102.39 5779.65 1104.5 5778.34C1106.61 5777.02 1107.25 5774.24 1105.93 5772.13C1104.61 5770.02 1101.83 5769.37 1099.72 5770.69Z" fill="#00E6D9"/>
<path d="M1152.52 5764.81C1151.36 5765.53 1151.01 5767.06 1151.73 5768.21C1152.45 5769.37 1153.98 5769.72 1155.13 5769C1156.29 5768.28 1156.64 5766.75 1155.92 5765.6C1155.2 5764.44 1153.67 5764.09 1152.52 5764.81Z" fill="#00E6D9"/>
</g>
<path d="M1238.84 5946.54L1234.88 5910.27L1200.67 5895.64L1170.39 5917.3L1174.35 5953.58L1208.58 5968.23L1238.84 5946.54Z" stroke="#00E6D9" stroke-width="4" stroke-miterlimit="10"/>
<path d="M1235.41 5942.36C1232.83 5943.97 1232.05 5947.37 1233.66 5949.95C1235.27 5952.53 1238.67 5953.32 1241.25 5951.7C1243.83 5950.09 1244.62 5946.69 1243 5944.11C1241.39 5941.53 1237.99 5940.75 1235.41 5942.36Z" fill="#00E6D9"/>
<path d="M1173.01 5951.06C1171.6 5951.94 1171.17 5953.8 1172.06 5955.21C1172.94 5956.62 1174.8 5957.05 1176.21 5956.17C1177.62 5955.29 1178.05 5953.43 1177.17 5952.02C1176.28 5950.61 1174.43 5950.18 1173.01 5951.06Z" fill="#00E6D9"/>
<path d="M1235.01 5972.52L1270.79 5965.3L1282.21 5929.86L1257.89 5901.71L1222.11 5908.94L1210.67 5944.35L1235.01 5972.52Z" stroke="#00E6D9" stroke-width="4" stroke-miterlimit="10"/>
<path d="M1231.57 5967.4C1228.99 5969.01 1228.21 5972.41 1229.82 5974.99C1231.43 5977.57 1234.83 5978.36 1237.41 5976.74C1239.99 5975.13 1240.78 5971.73 1239.16 5969.15C1237.55 5966.57 1234.15 5965.79 1231.57 5967.4Z" fill="#00E6D9"/>
<path d="M1280.72 5927.31C1279.31 5928.19 1278.88 5930.05 1279.76 5931.46C1280.64 5932.88 1282.5 5933.3 1283.91 5932.42C1285.32 5931.54 1285.75 5929.68 1284.87 5928.27C1283.99 5926.86 1282.13 5926.43 1280.72 5927.31Z" fill="#00E6D9"/>
<g filter="url(#filter43_f_819_1800)">
<path d="M930.548 5863.11L908.062 5946.84L971.213 6008.7L1056.86 5986.85L1079.36 5903.08L1016.18 5841.24L930.548 5863.11Z" stroke="#00E6D9" stroke-width="4" stroke-miterlimit="10"/>
</g>
<g filter="url(#filter44_f_819_1800)">
<path d="M925.103 5851.41C918.976 5855.24 917.113 5863.32 920.943 5869.45C924.773 5875.58 932.846 5877.44 938.974 5873.61C945.102 5869.78 946.964 5861.71 943.134 5855.58C939.304 5849.45 931.231 5847.59 925.103 5851.41Z" fill="#00E6D9"/>
</g>
<path d="M1075.02 5896.73C1071.64 5898.83 1070.62 5903.28 1072.73 5906.65C1074.83 5910.03 1079.28 5911.05 1082.65 5908.94C1086.02 5906.84 1087.05 5902.39 1084.94 5899.02C1082.83 5895.65 1078.39 5894.62 1075.02 5896.73Z" fill="#00E6D9"/>
<g opacity="0.15">
<path d="M1201.95 6015.26L1220.27 6002.33L1217.95 5979.61L1197.3 5969.77L1178.99 5982.7L1181.31 6005.43L1201.95 6015.26Z" stroke="#00E6D9" stroke-width="4" stroke-miterlimit="10"/>
<path d="M1204.1 6010.94C1201.25 6009.4 1197.7 6010.46 1196.16 6013.3C1194.62 6016.15 1195.68 6019.7 1198.52 6021.24C1201.37 6022.78 1204.92 6021.72 1206.46 6018.88C1208 6016.03 1206.94 6012.48 1204.1 6010.94Z" fill="#00E6D9"/>
<path d="M1146.84 6023.96C1145.67 6024.69 1145.32 6026.23 1146.05 6027.4C1146.78 6028.57 1148.32 6028.93 1149.49 6028.2C1150.66 6027.47 1151.01 6025.93 1150.28 6024.76C1149.55 6023.59 1148.01 6023.23 1146.84 6023.96Z" fill="#00E6D9"/>
<path d="M1130.2 6060.08C1129.03 6060.81 1128.67 6062.35 1129.4 6063.52C1130.14 6064.69 1131.68 6065.05 1132.84 6064.32C1134.01 6063.59 1134.37 6062.05 1133.64 6060.88C1132.91 6059.71 1131.37 6059.35 1130.2 6060.08Z" fill="#00E6D9"/>
</g>
</g>
<g filter="url(#filter45_f_819_1800)">
<path d="M266.375 2744.25L231.65 2772.81L239.701 2817.97L282.463 2834.53L317.174 2805.94L309.137 2760.81L266.375 2744.25Z" stroke="url(#paint2_linear_819_1800)" stroke-width="4" stroke-miterlimit="10"/>
</g>
<path d="M234.22 2777.2C236.491 2775.78 237.181 2772.79 235.762 2770.52C234.342 2768.24 231.35 2767.55 229.079 2768.97C226.808 2770.39 226.118 2773.38 227.537 2775.65C228.957 2777.93 231.949 2778.62 234.22 2777.2Z" fill="#00E6D9"/>
<path d="M312.246 2764.48C314.517 2763.06 315.207 2760.07 313.788 2757.8C312.368 2755.53 309.377 2754.84 307.106 2756.26C304.834 2757.68 304.144 2760.67 305.563 2762.94C306.983 2765.21 309.975 2765.9 312.246 2764.48Z" fill="#00E6D9"/>
<path d="M164.369 2794.01L169.501 2828.81L202.992 2841.69L231.361 2819.73L226.23 2784.93L192.738 2772.05L164.369 2794.01Z" stroke="#00E6D9" stroke-width="4" stroke-miterlimit="10"/>
<path d="M171.688 2832.14C173.462 2831.04 174.001 2828.7 172.892 2826.92C171.784 2825.15 169.447 2824.61 167.673 2825.72C165.899 2826.83 165.36 2829.16 166.469 2830.94C167.577 2832.71 169.914 2833.25 171.688 2832.14Z" fill="#00E6D9"/>
<path d="M194.682 2774.73C196.456 2773.62 196.995 2771.28 195.886 2769.51C194.778 2767.74 192.441 2767.2 190.667 2768.3C188.893 2769.41 188.354 2771.75 189.462 2773.52C190.571 2775.3 192.908 2775.84 194.682 2774.73Z" fill="#00E6D9"/>
<g filter="url(#filter46_f_819_1800)">
<path d="M236.791 2825.71L195.732 2858.44L204.274 2911.31L253.898 2931.44L294.956 2898.71L286.39 2845.85L236.791 2825.71Z" stroke="url(#paint3_linear_819_1800)" stroke-width="4" stroke-miterlimit="10"/>
</g>
<path d="M198.719 2863.55C201.367 2861.89 202.171 2858.4 200.517 2855.76C198.862 2853.11 195.375 2852.3 192.727 2853.96C190.08 2855.61 189.275 2859.1 190.93 2861.75C192.584 2864.39 196.072 2865.2 198.719 2863.55Z" fill="#00E6D9"/>
<path d="M127.338 2803.52C129.985 2801.87 130.79 2798.38 129.135 2795.73C127.48 2793.08 123.993 2792.28 121.345 2793.93C118.698 2795.59 117.893 2799.07 119.548 2801.72C121.203 2804.37 124.69 2805.18 127.338 2803.52Z" fill="#00E6D9"/>
<path d="M64.1181 2803.05L76.5212 2756.79L41.6335 2722.61L-5.69677 2734.69L-18.0999 2780.95L16.7878 2815.13L64.1181 2803.05Z" stroke="#00E6D9" stroke-width="4" stroke-miterlimit="10"/>
<path d="M137.525 2914.1L149.928 2867.84L115.04 2833.66L67.7102 2845.74L55.3071 2892.01L90.1948 2926.18L137.525 2914.1Z" stroke="#00E6D9" stroke-width="4" stroke-miterlimit="10"/>
<path d="M67.1051 2809.51C70.4916 2807.39 71.5211 2802.93 69.4044 2799.54C67.2878 2796.15 62.8266 2795.12 59.4401 2797.24C56.0536 2799.36 55.0241 2803.82 57.1407 2807.2C59.2574 2810.59 63.7186 2811.62 67.1051 2809.51Z" fill="#00E6D9"/>
<path d="M-9.94353 2917.08L4.63423 2862.65L-36.3823 2822.46L-92.0558 2836.68L-106.673 2891.09L-65.6169 2931.29L-9.94353 2917.08Z" stroke="#00E6D9" stroke-width="4" stroke-miterlimit="10"/>
<path d="M-6.4243 2924.66C-2.44649 2922.17 -1.2373 2916.93 -3.72351 2912.95C-6.20971 2908.98 -11.4498 2907.76 -15.4276 2910.25C-19.4055 2912.74 -20.6147 2917.98 -18.1284 2921.96C-15.6422 2925.93 -10.4021 2927.14 -6.4243 2924.66Z" fill="#00E6D9"/>
<path d="M27.6938 2959.82L21.0138 2902.13L-33.5925 2879.23L-81.4944 2914L-74.8143 2971.69L-20.208 2994.59L27.6938 2959.82Z" stroke="#00E6D9" stroke-width="4" stroke-miterlimit="10"/>
<path d="M31.5385 2967.98C35.6373 2965.42 36.8832 2960.02 34.3214 2955.92C31.7596 2951.82 26.3602 2950.57 22.2614 2953.13C18.1627 2955.69 16.9167 2961.09 19.4785 2965.19C22.0403 2969.29 27.4398 2970.54 31.5385 2967.98Z" fill="#00E6D9"/>
<g opacity="0.24">
<path d="M18.099 3067.92L14.9385 3047.32L-4.9446 3039.81L-21.652 3052.92L-18.5067 3073.5L1.37636 3081.01L18.099 3067.92Z" stroke="#00E6D9" stroke-width="4" stroke-miterlimit="10"/>
<path d="M19.5012 3070.87C20.9794 3069.94 21.4288 3067.99 20.5048 3066.52C19.5809 3065.04 17.6336 3064.59 16.1554 3065.51C14.6771 3066.43 14.2277 3068.38 15.1517 3069.86C16.0756 3071.34 18.023 3071.79 19.5012 3070.87Z" fill="#00E6D9"/>
</g>
<g opacity="0.24">
<path d="M-6.10051 3033.09L-10.6176 3003.66L-39.0447 2992.93L-62.9393 3011.65L-58.4221 3041.08L-29.9951 3051.81L-6.10051 3033.09Z" stroke="#00E6D9" stroke-width="4" stroke-miterlimit="10"/>
</g>
<path d="M165.062 2944.88L187.547 2861.15L124.397 2799.29L38.7454 2821.14L16.2507 2904.91L79.4257 2966.75L165.062 2944.88Z" stroke="#00E6D9" stroke-width="4" stroke-miterlimit="10"/>
<path d="M170.506 2956.57C176.634 2952.74 178.497 2944.67 174.667 2938.54C170.837 2932.41 162.764 2930.55 156.636 2934.38C150.508 2938.21 148.646 2946.28 152.476 2952.41C156.306 2958.54 164.378 2960.4 170.506 2956.57Z" fill="#00E6D9"/>
<path d="M20.594 2911.26C23.9671 2909.15 24.9925 2904.71 22.8843 2901.34C20.776 2897.96 16.3325 2896.94 12.9594 2899.04C9.58634 2901.15 8.561 2905.6 10.6692 2908.97C12.7775 2912.34 17.2209 2913.37 20.594 2911.26Z" fill="#00E6D9"/>
<g opacity="0.24" filter="url(#filter47_f_819_1800)">
<path d="M1183.54 776.399L1216.22 746.045L1205.61 701.783L1162.3 687.915L1129.63 718.269L1140.24 762.531L1183.54 776.399Z" stroke="#00E6D9" stroke-width="4" stroke-miterlimit="10"/>
<path d="M1180 782.4C1183.41 783.906 1187.39 782.363 1188.9 778.953C1190.4 775.544 1188.86 771.559 1185.45 770.053C1182.04 768.547 1178.06 770.09 1176.55 773.499C1175.05 776.909 1176.59 780.894 1180 782.4Z" fill="#00E6D9"/>
<path d="M1128.3 721.913C1130.16 722.738 1132.35 721.892 1133.17 720.025C1134 718.157 1133.15 715.974 1131.29 715.149C1129.42 714.324 1127.24 715.169 1126.41 717.037C1125.59 718.905 1126.43 721.088 1128.3 721.913Z" fill="#00E6D9"/>
</g>
<g opacity="0.24" filter="url(#filter48_f_819_1800)">
<path d="M1123.54 713.399L1156.22 683.045L1145.61 638.783L1102.3 624.915L1069.62 655.269L1080.24 699.531L1123.54 713.399Z" stroke="#00E6D9" stroke-width="4" stroke-miterlimit="10"/>
<path d="M1078.17 706.075C1081.58 707.581 1085.57 706.037 1087.07 702.628C1088.58 699.218 1087.04 695.233 1083.63 693.727C1080.22 692.221 1076.23 693.764 1074.73 697.174C1073.22 700.584 1074.76 704.569 1078.17 706.075Z" fill="#00E6D9"/>
<path d="M1068.3 658.913C1070.16 659.738 1072.35 658.893 1073.17 657.025C1074 655.157 1073.15 652.974 1071.29 652.149C1069.42 651.324 1067.24 652.17 1066.41 654.037C1065.58 655.905 1066.43 658.088 1068.3 658.913Z" fill="#00E6D9"/>
</g>
<g filter="url(#filter49_f_819_1800)">
<path d="M1248.01 708.88L1311.45 649.788L1290.68 563.863L1206.47 537L1143 596.121L1163.8 682.047L1248.01 708.88Z" stroke="#00E6D9" stroke-width="4" stroke-miterlimit="10"/>
<path d="M1246.44 721.68C1253.66 721.68 1259.52 715.821 1259.52 708.593C1259.52 701.366 1253.66 695.506 1246.44 695.506C1239.21 695.506 1233.35 701.366 1233.35 708.593C1233.35 715.821 1239.21 721.68 1246.44 721.68Z" fill="#00E6D9"/>
</g>
<g filter="url(#filter50_f_819_1800)">
<g opacity="0.24" filter="url(#filter51_f_819_1800)">
<path d="M1152.45 5501.4L1185.12 5471.04L1174.51 5426.78L1131.21 5412.91L1098.53 5443.27L1109.14 5487.53L1152.45 5501.4Z" stroke="#00E6D9" stroke-width="4" stroke-miterlimit="10"/>
<path d="M1148.9 5507.4C1152.31 5508.91 1156.3 5507.36 1157.8 5503.95C1159.31 5500.54 1157.77 5496.56 1154.36 5495.05C1150.95 5493.55 1146.96 5495.09 1145.46 5498.5C1143.95 5501.91 1145.49 5505.89 1148.9 5507.4Z" fill="#00E6D9"/>
<path d="M1097.2 5446.91C1099.07 5447.74 1101.25 5446.89 1102.08 5445.02C1102.9 5443.16 1102.06 5440.97 1100.19 5440.15C1098.32 5439.32 1096.14 5440.17 1095.32 5442.04C1094.49 5443.9 1095.33 5446.09 1097.2 5446.91Z" fill="#00E6D9"/>
</g>
<g opacity="0.24" filter="url(#filter52_f_819_1800)">
<path d="M1092.45 5438.4L1125.12 5408.05L1114.51 5363.78L1071.21 5349.92L1038.53 5380.27L1049.14 5424.53L1092.45 5438.4Z" stroke="#00E6D9" stroke-width="4" stroke-miterlimit="10"/>
<path d="M1047.08 5431.07C1050.49 5432.58 1054.47 5431.04 1055.98 5427.63C1057.48 5424.22 1055.94 5420.23 1052.53 5418.73C1049.12 5417.22 1045.14 5418.76 1043.63 5422.17C1042.13 5425.58 1043.67 5429.57 1047.08 5431.07Z" fill="#00E6D9"/>
<path d="M1037.2 5383.91C1039.07 5384.74 1041.25 5383.89 1042.08 5382.03C1042.9 5380.16 1042.06 5377.97 1040.19 5377.15C1038.32 5376.32 1036.14 5377.17 1035.31 5379.04C1034.49 5380.91 1035.33 5383.09 1037.2 5383.91Z" fill="#00E6D9"/>
</g>
<path d="M1216.92 5433.88L1280.36 5374.79L1259.59 5288.86L1175.37 5262L1111.9 5321.12L1132.71 5407.05L1216.92 5433.88Z" stroke="#00E6D9" stroke-width="4" stroke-miterlimit="10"/>
<path d="M1215.34 5446.68C1222.57 5446.68 1228.42 5440.82 1228.42 5433.59C1228.42 5426.37 1222.57 5420.51 1215.34 5420.51C1208.12 5420.51 1202.26 5426.37 1202.26 5433.59C1202.26 5440.82 1208.12 5446.68 1215.34 5446.68Z" fill="#00E6D9"/>
</g>
</g>
<defs>
<filter id="filter0_f_819_1800" x="-410.027" y="214" width="990.027" height="701.973" filterUnits="userSpaceOnUse" color-interpolation-filters="sRGB">
<feFlood flood-opacity="0" result="BackgroundImageFix"/>
<feBlend mode="normal" in="SourceGraphic" in2="BackgroundImageFix" result="shape"/>
<feGaussianBlur stdDeviation="7" result="effect1_foregroundBlur_819_1800"/>
</filter>
<filter id="filter1_f_819_1800" x="803.828" y="4539.42" width="124.248" height="112.377" filterUnits="userSpaceOnUse" color-interpolation-filters="sRGB">
<feFlood flood-opacity="0" result="BackgroundImageFix"/>
<feBlend mode="normal" in="SourceGraphic" in2="BackgroundImageFix" result="shape"/>
<feGaussianBlur stdDeviation="7" result="effect1_foregroundBlur_819_1800"/>
</filter>
<filter id="filter2_f_819_1800" x="892.804" y="4574.47" width="37.7006" height="37.6997" filterUnits="userSpaceOnUse" color-interpolation-filters="sRGB">
<feFlood flood-opacity="0" result="BackgroundImageFix"/>
<feBlend mode="normal" in="SourceGraphic" in2="BackgroundImageFix" result="shape"/>
<feGaussianBlur stdDeviation="7" result="effect1_foregroundBlur_819_1800"/>
</filter>
<filter id="filter3_f_819_1800" x="864.996" y="4613.77" width="37.7006" height="37.6997" filterUnits="userSpaceOnUse" color-interpolation-filters="sRGB">
<feFlood flood-opacity="0" result="BackgroundImageFix"/>
<feBlend mode="normal" in="SourceGraphic" in2="BackgroundImageFix" result="shape"/>
<feGaussianBlur stdDeviation="7" result="effect1_foregroundBlur_819_1800"/>
</filter>
<filter id="filter4_f_819_1800" x="876.823" y="4501.24" width="104.309" height="95.1067" filterUnits="userSpaceOnUse" color-interpolation-filters="sRGB">
<feFlood flood-opacity="0" result="BackgroundImageFix"/>
<feBlend mode="normal" in="SourceGraphic" in2="BackgroundImageFix" result="shape"/>
<feGaussianBlur stdDeviation="7" result="effect1_foregroundBlur_819_1800"/>
</filter>
<filter id="filter5_f_819_1800" x="928.106" y="4499.46" width="35.5768" height="35.5762" filterUnits="userSpaceOnUse" color-interpolation-filters="sRGB">
<feFlood flood-opacity="0" result="BackgroundImageFix"/>
<feBlend mode="normal" in="SourceGraphic" in2="BackgroundImageFix" result="shape"/>
<feGaussianBlur stdDeviation="7" result="effect1_foregroundBlur_819_1800"/>
</filter>
<filter id="filter6_f_819_1800" x="930.174" y="4561.27" width="35.5768" height="35.5762" filterUnits="userSpaceOnUse" color-interpolation-filters="sRGB">
<feFlood flood-opacity="0" result="BackgroundImageFix"/>
<feBlend mode="normal" in="SourceGraphic" in2="BackgroundImageFix" result="shape"/>
<feGaussianBlur stdDeviation="7" result="effect1_foregroundBlur_819_1800"/>
</filter>
<filter id="filter7_f_819_1800" x="796.321" y="4439.38" width="139.668" height="125.042" filterUnits="userSpaceOnUse" color-interpolation-filters="sRGB">
<feFlood flood-opacity="0" result="BackgroundImageFix"/>
<feBlend mode="normal" in="SourceGraphic" in2="BackgroundImageFix" result="shape"/>
<feGaussianBlur stdDeviation="7" result="effect1_foregroundBlur_819_1800"/>
</filter>
<filter id="filter8_f_819_1800" x="890.397" y="4480.78" width="39.3077" height="39.3066" filterUnits="userSpaceOnUse" color-interpolation-filters="sRGB">
<feFlood flood-opacity="0" result="BackgroundImageFix"/>
<feBlend mode="normal" in="SourceGraphic" in2="BackgroundImageFix" result="shape"/>
<feGaussianBlur stdDeviation="7" result="effect1_foregroundBlur_819_1800"/>
</filter>
<filter id="filter9_f_819_1800" x="979.903" y="4506.99" width="39.3078" height="39.3066" filterUnits="userSpaceOnUse" color-interpolation-filters="sRGB">
<feFlood flood-opacity="0" result="BackgroundImageFix"/>
<feBlend mode="normal" in="SourceGraphic" in2="BackgroundImageFix" result="shape"/>
<feGaussianBlur stdDeviation="7" result="effect1_foregroundBlur_819_1800"/>
</filter>
<filter id="filter10_f_819_1800" x="1036.79" y="4452.06" width="123.737" height="127.226" filterUnits="userSpaceOnUse" color-interpolation-filters="sRGB">
<feFlood flood-opacity="0" result="BackgroundImageFix"/>
<feBlend mode="normal" in="SourceGraphic" in2="BackgroundImageFix" result="shape"/>
<feGaussianBlur stdDeviation="7" result="effect1_foregroundBlur_819_1800"/>
</filter>
<filter id="filter11_f_819_1800" x="1032.36" y="4476.57" width="42.4648" height="42.4636" filterUnits="userSpaceOnUse" color-interpolation-filters="sRGB">
<feFlood flood-opacity="0" result="BackgroundImageFix"/>
<feBlend mode="normal" in="SourceGraphic" in2="BackgroundImageFix" result="shape"/>
<feGaussianBlur stdDeviation="7" result="effect1_foregroundBlur_819_1800"/>
</filter>
<filter id="filter12_f_819_1800" x="1118.81" y="4467.58" width="35.9212" height="35.9207" filterUnits="userSpaceOnUse" color-interpolation-filters="sRGB">
<feFlood flood-opacity="0" result="BackgroundImageFix"/>
<feBlend mode="normal" in="SourceGraphic" in2="BackgroundImageFix" result="shape"/>
<feGaussianBlur stdDeviation="7" result="effect1_foregroundBlur_819_1800"/>
</filter>
<filter id="filter13_f_819_1800" x="1151.72" y="4169.56" width="71.25" height="74.7144" filterUnits="userSpaceOnUse" color-interpolation-filters="sRGB">
<feFlood flood-opacity="0" result="BackgroundImageFix"/>
<feBlend mode="normal" in="SourceGraphic" in2="BackgroundImageFix" result="shape"/>
<feGaussianBlur stdDeviation="7" result="effect1_foregroundBlur_819_1800"/>
</filter>
<filter id="filter14_f_819_1800" x="1167.66" y="4168.82" width="34.314" height="34.3135" filterUnits="userSpaceOnUse" color-interpolation-filters="sRGB">
<feFlood flood-opacity="0" result="BackgroundImageFix"/>
<feBlend mode="normal" in="SourceGraphic" in2="BackgroundImageFix" result="shape"/>
<feGaussianBlur stdDeviation="7" result="effect1_foregroundBlur_819_1800"/>
</filter>
<filter id="filter15_f_819_1800" x="1123.57" y="4140.01" width="71.2513" height="75.4382" filterUnits="userSpaceOnUse" color-interpolation-filters="sRGB">
<feFlood flood-opacity="0" result="BackgroundImageFix"/>
<feBlend mode="normal" in="SourceGraphic" in2="BackgroundImageFix" result="shape"/>
<feGaussianBlur stdDeviation="7" result="effect1_foregroundBlur_819_1800"/>
</filter>
<filter id="filter16_f_819_1800" x="1097.33" y="4178.6" width="87.9732" height="92.7976" filterUnits="userSpaceOnUse" color-interpolation-filters="sRGB">
<feFlood flood-opacity="0" result="BackgroundImageFix"/>
<feBlend mode="normal" in="SourceGraphic" in2="BackgroundImageFix" result="shape"/>
<feGaussianBlur stdDeviation="7" result="effect1_foregroundBlur_819_1800"/>
</filter>
<filter id="filter17_f_819_1800" x="1119.22" y="4176.56" width="37.0118" height="37.011" filterUnits="userSpaceOnUse" color-interpolation-filters="sRGB">
<feFlood flood-opacity="0" result="BackgroundImageFix"/>
<feBlend mode="normal" in="SourceGraphic" in2="BackgroundImageFix" result="shape"/>
<feGaussianBlur stdDeviation="7" result="effect1_foregroundBlur_819_1800"/>
</filter>
<filter id="filter18_f_819_1800" x="1002.43" y="4175.83" width="75.756" height="69.5876" filterUnits="userSpaceOnUse" color-interpolation-filters="sRGB">
<feFlood flood-opacity="0" result="BackgroundImageFix"/>
<feBlend mode="normal" in="SourceGraphic" in2="BackgroundImageFix" result="shape"/>
<feGaussianBlur stdDeviation="7" result="effect1_foregroundBlur_819_1800"/>
</filter>
<filter id="filter19_f_819_1800" x="971.413" y="4201.55" width="75.7557" height="69.5469" filterUnits="userSpaceOnUse" color-interpolation-filters="sRGB">
<feFlood flood-opacity="0" result="BackgroundImageFix"/>
<feBlend mode="normal" in="SourceGraphic" in2="BackgroundImageFix" result="shape"/>
<feGaussianBlur stdDeviation="7" result="effect1_foregroundBlur_819_1800"/>
</filter>
<filter id="filter20_f_819_1800" x="1006.31" y="4214.83" width="95.2693" height="85.948" filterUnits="userSpaceOnUse" color-interpolation-filters="sRGB">
<feFlood flood-opacity="0" result="BackgroundImageFix"/>
<feBlend mode="normal" in="SourceGraphic" in2="BackgroundImageFix" result="shape"/>
<feGaussianBlur stdDeviation="7" result="effect1_foregroundBlur_819_1800"/>
</filter>
<filter id="filter21_f_819_1800" x="887.286" y="4338.48" width="197.756" height="203.932" filterUnits="userSpaceOnUse" color-interpolation-filters="sRGB">
<feFlood flood-opacity="0" result="BackgroundImageFix"/>
<feBlend mode="normal" in="SourceGraphic" in2="BackgroundImageFix" result="shape"/>
<feGaussianBlur stdDeviation="7" result="effect1_foregroundBlur_819_1800"/>
</filter>
<filter id="filter22_f_819_1800" x="877.478" y="4381.02" width="54.1744" height="54.1721" filterUnits="userSpaceOnUse" color-interpolation-filters="sRGB">
<feFlood flood-opacity="0" result="BackgroundImageFix"/>
<feBlend mode="normal" in="SourceGraphic" in2="BackgroundImageFix" result="shape"/>
<feGaussianBlur stdDeviation="7" result="effect1_foregroundBlur_819_1800"/>
</filter>
<filter id="filter23_f_819_1800" x="762.262" y="5957.17" width="117.873" height="122.862" filterUnits="userSpaceOnUse" color-interpolation-filters="sRGB">
<feFlood flood-opacity="0" result="BackgroundImageFix"/>
<feBlend mode="normal" in="SourceGraphic" in2="BackgroundImageFix" result="shape"/>
<feGaussianBlur stdDeviation="7" result="effect1_foregroundBlur_819_1800"/>
</filter>
<filter id="filter24_f_819_1800" x="845.11" y="6016.05" width="37.7" height="37.7007" filterUnits="userSpaceOnUse" color-interpolation-filters="sRGB">
<feFlood flood-opacity="0" result="BackgroundImageFix"/>
<feBlend mode="normal" in="SourceGraphic" in2="BackgroundImageFix" result="shape"/>
<feGaussianBlur stdDeviation="7" result="effect1_foregroundBlur_819_1800"/>
</filter>
<filter id="filter25_f_819_1800" x="803.832" y="6040.83" width="37.7001" height="37.7012" filterUnits="userSpaceOnUse" color-interpolation-filters="sRGB">
<feFlood flood-opacity="0" result="BackgroundImageFix"/>
<feBlend mode="normal" in="SourceGraphic" in2="BackgroundImageFix" result="shape"/>
<feGaussianBlur stdDeviation="7" result="effect1_foregroundBlur_819_1800"/>
</filter>
<filter id="filter26_f_819_1800" x="848.099" y="5950.03" width="99.2903" height="102.177" filterUnits="userSpaceOnUse" color-interpolation-filters="sRGB">
<feFlood flood-opacity="0" result="BackgroundImageFix"/>
<feBlend mode="normal" in="SourceGraphic" in2="BackgroundImageFix" result="shape"/>
<feGaussianBlur stdDeviation="7" result="effect1_foregroundBlur_819_1800"/>
</filter>
<filter id="filter27_f_819_1800" x="908.141" y="5961.27" width="35.5764" height="35.5771" filterUnits="userSpaceOnUse" color-interpolation-filters="sRGB">
<feFlood flood-opacity="0" result="BackgroundImageFix"/>
<feBlend mode="normal" in="SourceGraphic" in2="BackgroundImageFix" result="shape"/>
<feGaussianBlur stdDeviation="7" result="effect1_foregroundBlur_819_1800"/>
</filter>
<filter id="filter28_f_819_1800" x="885.147" y="6018.68" width="35.5764" height="35.5771" filterUnits="userSpaceOnUse" color-interpolation-filters="sRGB">
<feFlood flood-opacity="0" result="BackgroundImageFix"/>
<feBlend mode="normal" in="SourceGraphic" in2="BackgroundImageFix" result="shape"/>
<feGaussianBlur stdDeviation="7" result="effect1_foregroundBlur_819_1800"/>
</filter>
<filter id="filter29_f_819_1800" x="784.492" y="5860.26" width="131.546" height="138.312" filterUnits="userSpaceOnUse" color-interpolation-filters="sRGB">
<feFlood flood-opacity="0" result="BackgroundImageFix"/>
<feBlend mode="normal" in="SourceGraphic" in2="BackgroundImageFix" result="shape"/>
<feGaussianBlur stdDeviation="7" result="effect1_foregroundBlur_819_1800"/>
</filter>
<filter id="filter30_f_819_1800" x="880.233" y="5929.58" width="39.3071" height="39.3086" filterUnits="userSpaceOnUse" color-interpolation-filters="sRGB">
<feFlood flood-opacity="0" result="BackgroundImageFix"/>
<feBlend mode="normal" in="SourceGraphic" in2="BackgroundImageFix" result="shape"/>
<feGaussianBlur stdDeviation="7" result="effect1_foregroundBlur_819_1800"/>
</filter>
<filter id="filter31_f_819_1800" x="951.615" y="5989.61" width="39.3071" height="39.3086" filterUnits="userSpaceOnUse" color-interpolation-filters="sRGB">
<feFlood flood-opacity="0" result="BackgroundImageFix"/>
<feBlend mode="normal" in="SourceGraphic" in2="BackgroundImageFix" result="shape"/>
<feGaussianBlur stdDeviation="7" result="effect1_foregroundBlur_819_1800"/>
</filter>
<filter id="filter32_f_819_1800" x="1002.85" y="5976.65" width="127.09" height="124.947" filterUnits="userSpaceOnUse" color-interpolation-filters="sRGB">
<feFlood flood-opacity="0" result="BackgroundImageFix"/>
<feBlend mode="normal" in="SourceGraphic" in2="BackgroundImageFix" result="shape"/>
<feGaussianBlur stdDeviation="7" result="effect1_foregroundBlur_819_1800"/>
</filter>
<filter id="filter33_f_819_1800" x="1011.11" y="5983.38" width="42.464" height="42.4658" filterUnits="userSpaceOnUse" color-interpolation-filters="sRGB">
<feFlood flood-opacity="0" result="BackgroundImageFix"/>
<feBlend mode="normal" in="SourceGraphic" in2="BackgroundImageFix" result="shape"/>
<feGaussianBlur stdDeviation="7" result="effect1_foregroundBlur_819_1800"/>
</filter>
<filter id="filter34_f_819_1800" x="1095.45" y="6008.92" width="35.9207" height="35.9214" filterUnits="userSpaceOnUse" color-interpolation-filters="sRGB">
<feFlood flood-opacity="0" result="BackgroundImageFix"/>
<feBlend mode="normal" in="SourceGraphic" in2="BackgroundImageFix" result="shape"/>
<feGaussianBlur stdDeviation="7" result="effect1_foregroundBlur_819_1800"/>
</filter>
<filter id="filter35_f_819_1800" x="1235.37" y="5755.54" width="73.0032" height="73.3022" filterUnits="userSpaceOnUse" color-interpolation-filters="sRGB">
<feFlood flood-opacity="0" result="BackgroundImageFix"/>
<feBlend mode="normal" in="SourceGraphic" in2="BackgroundImageFix" result="shape"/>
<feGaussianBlur stdDeviation="7" result="effect1_foregroundBlur_819_1800"/>
</filter>
<filter id="filter36_f_819_1800" x="1260.85" y="5754.86" width="34.3136" height="34.314" filterUnits="userSpaceOnUse" color-interpolation-filters="sRGB">
<feFlood flood-opacity="0" result="BackgroundImageFix"/>
<feBlend mode="normal" in="SourceGraphic" in2="BackgroundImageFix" result="shape"/>
<feGaussianBlur stdDeviation="7" result="effect1_foregroundBlur_819_1800"/>
</filter>
<filter id="filter37_f_819_1800" x="1221.23" y="5717.17" width="72.9872" height="73.9624" filterUnits="userSpaceOnUse" color-interpolation-filters="sRGB">
<feFlood flood-opacity="0" result="BackgroundImageFix"/>
<feBlend mode="normal" in="SourceGraphic" in2="BackgroundImageFix" result="shape"/>
<feGaussianBlur stdDeviation="7" result="effect1_foregroundBlur_819_1800"/>
</filter>
<filter id="filter38_f_819_1800" x="1177.27" y="5744.8" width="90.4102" height="90.8384" filterUnits="userSpaceOnUse" color-interpolation-filters="sRGB">
<feFlood flood-opacity="0" result="BackgroundImageFix"/>
<feBlend mode="normal" in="SourceGraphic" in2="BackgroundImageFix" result="shape"/>
<feGaussianBlur stdDeviation="7" result="effect1_foregroundBlur_819_1800"/>
</filter>
<filter id="filter39_f_819_1800" x="1212.73" y="5742.87" width="37.0113" height="37.0122" filterUnits="userSpaceOnUse" color-interpolation-filters="sRGB">
<feFlood flood-opacity="0" result="BackgroundImageFix"/>
<feBlend mode="normal" in="SourceGraphic" in2="BackgroundImageFix" result="shape"/>
<feGaussianBlur stdDeviation="7" result="effect1_foregroundBlur_819_1800"/>
</filter>
<filter id="filter40_f_819_1800" x="1099.37" y="5699.67" width="72.7912" height="73.7476" filterUnits="userSpaceOnUse" color-interpolation-filters="sRGB">
<feFlood flood-opacity="0" result="BackgroundImageFix"/>
<feBlend mode="normal" in="SourceGraphic" in2="BackgroundImageFix" result="shape"/>
<feGaussianBlur stdDeviation="7" result="effect1_foregroundBlur_819_1800"/>
</filter>
<filter id="filter41_f_819_1800" x="1060.62" y="5710.71" width="72.7906" height="73.7329" filterUnits="userSpaceOnUse" color-interpolation-filters="sRGB">
<feFlood flood-opacity="0" result="BackgroundImageFix"/>
<feBlend mode="normal" in="SourceGraphic" in2="BackgroundImageFix" result="shape"/>
<feGaussianBlur stdDeviation="7" result="effect1_foregroundBlur_819_1800"/>
</filter>
<filter id="filter42_f_819_1800" x="1083.61" y="5739.91" width="91.0973" height="91.4189" filterUnits="userSpaceOnUse" color-interpolation-filters="sRGB">
<feFlood flood-opacity="0" result="BackgroundImageFix"/>
<feBlend mode="normal" in="SourceGraphic" in2="BackgroundImageFix" result="shape"/>
<feGaussianBlur stdDeviation="7" result="effect1_foregroundBlur_819_1800"/>
</filter>
<filter id="filter43_f_819_1800" x="891.828" y="5825.02" width="203.766" height="199.893" filterUnits="userSpaceOnUse" color-interpolation-filters="sRGB">
<feFlood flood-opacity="0" result="BackgroundImageFix"/>
<feBlend mode="normal" in="SourceGraphic" in2="BackgroundImageFix" result="shape"/>
<feGaussianBlur stdDeviation="7" result="effect1_foregroundBlur_819_1800"/>
</filter>
<filter id="filter44_f_819_1800" x="904.952" y="5835.43" width="54.1729" height="54.1758" filterUnits="userSpaceOnUse" color-interpolation-filters="sRGB">
<feFlood flood-opacity="0" result="BackgroundImageFix"/>
<feBlend mode="normal" in="SourceGraphic" in2="BackgroundImageFix" result="shape"/>
<feGaussianBlur stdDeviation="7" result="effect1_foregroundBlur_819_1800"/>
</filter>
<filter id="filter45_f_819_1800" x="215.475" y="2727.96" width="117.873" height="122.863" filterUnits="userSpaceOnUse" color-interpolation-filters="sRGB">
<feFlood flood-opacity="0" result="BackgroundImageFix"/>
<feBlend mode="normal" in="SourceGraphic" in2="BackgroundImageFix" result="shape"/>
<feGaussianBlur stdDeviation="7" result="effect1_foregroundBlur_819_1800"/>
</filter>
<filter id="filter46_f_819_1800" x="179.572" y="2809.42" width="131.546" height="138.312" filterUnits="userSpaceOnUse" color-interpolation-filters="sRGB">
<feFlood flood-opacity="0" result="BackgroundImageFix"/>
<feBlend mode="normal" in="SourceGraphic" in2="BackgroundImageFix" result="shape"/>
<feGaussianBlur stdDeviation="7" result="effect1_foregroundBlur_819_1800"/>
</filter>
<filter id="filter47_f_819_1800" x="1121.09" y="680.654" width="102.34" height="107.324" filterUnits="userSpaceOnUse" color-interpolation-filters="sRGB">
<feFlood flood-opacity="0" result="BackgroundImageFix"/>
<feBlend mode="normal" in="SourceGraphic" in2="BackgroundImageFix" result="shape"/>
<feGaussianBlur stdDeviation="2.5" result="effect1_foregroundBlur_819_1800"/>
</filter>
<filter id="filter48_f_819_1800" x="1061.09" y="617.654" width="102.34" height="103.007" filterUnits="userSpaceOnUse" color-interpolation-filters="sRGB">
<feFlood flood-opacity="0" result="BackgroundImageFix"/>
<feBlend mode="normal" in="SourceGraphic" in2="BackgroundImageFix" result="shape"/>
<feGaussianBlur stdDeviation="2.5" result="effect1_foregroundBlur_819_1800"/>
</filter>
<filter id="filter49_f_819_1800" x="1132.78" y="526.739" width="188.892" height="202.941" filterUnits="userSpaceOnUse" color-interpolation-filters="sRGB">
<feFlood flood-opacity="0" result="BackgroundImageFix"/>
<feBlend mode="normal" in="SourceGraphic" in2="BackgroundImageFix" result="shape"/>
<feGaussianBlur stdDeviation="4" result="effect1_foregroundBlur_819_1800"/>
</filter>
<filter id="filter50_f_819_1800" x="1010" y="5251.74" width="280.577" height="271.113" filterUnits="userSpaceOnUse" color-interpolation-filters="sRGB">
<feFlood flood-opacity="0" result="BackgroundImageFix"/>
<feBlend mode="normal" in="SourceGraphic" in2="BackgroundImageFix" result="shape"/>
<feGaussianBlur stdDeviation="4" result="effect1_foregroundBlur_819_1800"/>
</filter>
<filter id="filter51_f_819_1800" x="1090" y="5405.65" width="102.34" height="107.324" filterUnits="userSpaceOnUse" color-interpolation-filters="sRGB">
<feFlood flood-opacity="0" result="BackgroundImageFix"/>
<feBlend mode="normal" in="SourceGraphic" in2="BackgroundImageFix" result="shape"/>
<feGaussianBlur stdDeviation="2.5" result="effect1_foregroundBlur_819_1800"/>
</filter>
<filter id="filter52_f_819_1800" x="1030" y="5342.65" width="102.34" height="103.007" filterUnits="userSpaceOnUse" color-interpolation-filters="sRGB">
<feFlood flood-opacity="0" result="BackgroundImageFix"/>
<feBlend mode="normal" in="SourceGraphic" in2="BackgroundImageFix" result="shape"/>
<feGaussianBlur stdDeviation="2.5" result="effect1_foregroundBlur_819_1800"/>
</filter>
<linearGradient id="paint0_linear_819_1800" x1="862.552" y1="6040.56" x2="779.977" y2="5996.65" gradientUnits="userSpaceOnUse">
<stop offset="0.01" stop-color="#02E6D9"/>
<stop offset="0.09" stop-color="#37EBE1"/>
<stop offset="0.17" stop-color="#65F0E8"/>
<stop offset="0.26" stop-color="#8EF4EE"/>
<stop offset="0.36" stop-color="#B1F7F3"/>
<stop offset="0.46" stop-color="#CEFAF8"/>
<stop offset="0.56" stop-color="#E4FCFB"/>
<stop offset="0.68" stop-color="#F3FEFD" stop-opacity="0"/>
<stop offset="0.81" stop-color="#FCFFFF" stop-opacity="0"/>
<stop offset="1" stop-color="white" stop-opacity="0"/>
</linearGradient>
<linearGradient id="paint1_linear_819_1800" x1="898.168" y1="5955.34" x2="802.39" y2="5903.5" gradientUnits="userSpaceOnUse">
<stop offset="0.01" stop-color="#09E7DA"/>
<stop offset="0.05" stop-color="#37EBE1"/>
<stop offset="0.1" stop-color="#62F0E8"/>
<stop offset="0.15" stop-color="#88F3ED"/>
<stop offset="0.2" stop-color="#A8F7F2"/>
<stop offset="0.26" stop-color="#C4F9F6"/>
<stop offset="0.32" stop-color="#DAFBF9"/>
<stop offset="0.4" stop-color="#EBFDFC" stop-opacity="0"/>
<stop offset="0.5" stop-color="#F6FEFE" stop-opacity="0"/>
<stop offset="0.63" stop-color="#FDFFFF" stop-opacity="0"/>
<stop offset="1" stop-color="white" stop-opacity="0"/>
</linearGradient>
<linearGradient id="paint2_linear_819_1800" x1="233.057" y1="2767.43" x2="315.633" y2="2811.34" gradientUnits="userSpaceOnUse">
<stop offset="0.01" stop-color="#02E6D9"/>
<stop offset="0.09" stop-color="#37EBE1"/>
<stop offset="0.359375" stop-color="#65F0E8"/>
<stop offset="0.552083" stop-color="#8EF4EE"/>
<stop offset="0.791667" stop-color="#055979"/>
</linearGradient>
<linearGradient id="paint3_linear_819_1800" x1="197.442" y1="2852.65" x2="293.22" y2="2904.49" gradientUnits="userSpaceOnUse">
<stop offset="0.01" stop-color="#09E7DA"/>
<stop offset="0.05" stop-color="#37EBE1"/>
<stop offset="0.1" stop-color="#62F0E8"/>
<stop offset="0.15" stop-color="#88F3ED"/>
<stop offset="0.2" stop-color="#A8F7F2"/>
<stop offset="0.26" stop-color="#C4F9F6"/>
<stop offset="0.515625" stop-color="#055B7B"/>
</linearGradient>
<clipPath id="clip0_819_1800">
<rect width="1280" height="6726" fill="white"/>
</clipPath>
<clipPath id="clip1_819_1800">
<rect width="961" height="673" fill="white" transform="translate(1891.61 6012.74) rotate(148)"/>
</clipPath>
</defs>
</svg>
