<svg width="59" height="60" viewBox="0 0 59 60" fill="none" xmlns="http://www.w3.org/2000/svg">
<path d="M29.5002 59.1666C13.3914 59.1666 0.333496 46.1087 0.333496 29.9999C0.333496 13.8912 13.3914 0.833252 29.5002 0.833252C45.6089 0.833252 58.6668 13.8912 58.6668 29.9999C58.6668 46.1087 45.6089 59.1666 29.5002 59.1666ZM29.5002 53.3332C35.6885 53.3332 41.6235 50.8749 45.9993 46.4991C50.3752 42.1232 52.8335 36.1883 52.8335 29.9999C52.8335 23.8115 50.3752 17.8766 45.9993 13.5008C41.6235 9.12491 35.6885 6.66658 29.5002 6.66658C23.3118 6.66658 17.3769 9.12491 13.001 13.5008C8.62516 17.8766 6.16683 23.8115 6.16683 29.9999C6.16683 36.1883 8.62516 42.1232 13.001 46.4991C17.3769 50.8749 23.3118 53.3332 29.5002 53.3332ZM26.5922 41.6666L14.2168 29.2912L18.341 25.167L26.5922 33.4183L43.0889 16.9187L47.216 21.0428L26.5922 41.6666Z" fill="#03CB47"/>
</svg>
