<svg width="63" height="55" viewBox="0 0 63 55" fill="none" xmlns="http://www.w3.org/2000/svg">
<path d="M34.0259 2.24995L61.8101 50.375C62.0661 50.8183 62.2008 51.3213 62.2008 51.8333C62.2008 52.3453 62.0661 52.8482 61.8101 53.2916C61.5541 53.735 61.1859 54.1032 60.7425 54.3592C60.2992 54.6152 59.7962 54.7499 59.2842 54.75H3.71591C3.20393 54.7499 2.70098 54.6152 2.2576 54.3592C1.81422 54.1032 1.44604 53.735 1.19006 53.2916C0.934075 52.8482 0.799313 52.3453 0.799316 51.8333C0.79932 51.3213 0.934088 50.8183 1.19008 50.375L28.9742 2.24995C29.2302 1.8066 29.5984 1.43844 30.0418 1.18247C30.4852 0.926502 30.9881 0.791748 31.5001 0.791748C32.012 0.791748 32.515 0.926502 32.9583 1.18247C33.4017 1.43844 33.7699 1.8066 34.0259 2.24995ZM28.5834 40.1666V46H34.4167V40.1666H28.5834ZM28.5834 19.75V34.3333H34.4167V19.75H28.5834Z" fill="#F32F2F"/>
</svg>
