<svg width="26" height="22" viewBox="0 0 26 22" fill="none" xmlns="http://www.w3.org/2000/svg">
<path d="M23.7834 0.348506C23.7834 0.348506 26.1886 -0.58935 25.9881 1.6883C25.9213 2.62617 25.3201 5.90867 24.8524 9.45915L23.2489 19.9766C23.2489 19.9766 23.1153 21.5173 21.9127 21.7853C20.7101 22.0532 18.9062 20.8475 18.5721 20.5795C18.3049 20.3785 13.5614 17.364 11.891 15.8902C11.4234 15.4882 10.8889 14.6843 11.9578 13.7465L18.973 7.04753C19.7747 6.24364 20.5765 4.36792 17.2359 6.64558L7.8824 13.0096C7.8824 13.0096 6.81343 13.6795 4.80914 13.0766L0.466404 11.7368C0.466404 11.7368 -1.13706 10.732 1.60219 9.72708C8.2833 6.57854 16.501 3.36302 23.7834 0.348506Z" fill="#022A58"/>
</svg>
