<svg width="26" height="22" viewBox="0 0 26 22" fill="none" xmlns="http://www.w3.org/2000/svg">
<path d="M23.7834 0.19128C23.7834 0.19128 26.1886 -0.746577 25.9881 1.53108C25.9213 2.46895 25.3201 5.75144 24.8524 9.30193L23.2489 19.8194C23.2489 19.8194 23.1153 21.3601 21.9127 21.6281C20.7101 21.896 18.9062 20.6902 18.5721 20.4222C18.3049 20.2213 13.5614 17.2067 11.891 15.733C11.4234 15.331 10.8889 14.5271 11.9578 13.5893L18.973 6.89031C19.7747 6.08641 20.5765 4.2107 17.2359 6.48836L7.8824 12.8524C7.8824 12.8524 6.81343 13.5223 4.80914 12.9194L0.466404 11.5796C0.466404 11.5796 -1.13706 10.5748 1.60219 9.56985C8.2833 6.42132 16.501 3.2058 23.7834 0.19128Z" fill="white"/>
</svg>
