<svg width="34" height="34" viewBox="0 0 34 34" fill="none" xmlns="http://www.w3.org/2000/svg">
<path fill-rule="evenodd" clip-rule="evenodd" d="M17 31.1667C24.824 31.1667 31.1666 24.8241 31.1666 17C31.1666 9.176 24.824 2.83337 17 2.83337C9.17594 2.83337 2.83331 9.176 2.83331 17C2.83331 24.8241 9.17594 31.1667 17 31.1667Z" stroke="#333333" stroke-width="2"/>
<path d="M17 31.1667C24.824 31.1667 31.1666 24.8241 31.1666 17C31.1666 9.176 24.824 2.83337 17 2.83337C9.17594 2.83337 2.83331 9.176 2.83331 17C2.83331 24.8241 9.17594 31.1667 17 31.1667Z" fill="#333333" stroke="#333333" stroke-width="2" stroke-linejoin="round"/>
<path d="M23.375 19.125L17 12.75L10.625 19.125" stroke="white" stroke-width="2" stroke-linecap="round" stroke-linejoin="round"/>
</svg>
