<svg width="28" height="18" viewBox="0 0 28 18" fill="none" xmlns="http://www.w3.org/2000/svg">
<path d="M0.945438 0C1.92453 0 3.41647 0 4.25569 0C4.6753 0 5.00166 0.293923 5.14153 0.68582C5.56114 1.95948 6.49361 4.75175 7.56595 6.66225C9.01127 9.16059 9.94373 10.0913 10.5498 9.99337C11.1559 9.84641 10.9694 8.18085 10.9694 6.8582C10.9694 5.53554 11.1093 3.28214 10.5032 2.25341L9.57075 0.832781C9.33763 0.489872 9.57075 0.0489873 9.94373 0.0489873H15.2588C15.7716 0.0489873 16.1913 0.489871 16.1913 1.02873V8.13186C16.1913 8.13186 16.4244 9.40553 17.7298 8.08287C19.0353 6.76022 20.434 4.31087 21.5996 1.81252L22.0658 0.636833C22.2057 0.293923 22.532 0.0489873 22.905 0.0489873H26.3551C27.0079 0.0489873 27.4741 0.734807 27.241 1.37164L26.868 2.40037C26.868 2.40037 25.6092 5.04567 24.3037 6.90718C22.9983 8.81768 22.7185 9.25856 22.905 9.74844C23.0915 10.2383 26.4484 13.5204 27.2876 15.088C27.5207 15.5289 27.7072 15.9208 27.8937 16.2637C28.2201 16.9006 27.7538 17.7333 27.0545 17.7333H23.1381C22.8118 17.7333 22.4854 17.5374 22.3455 17.2435L21.9725 16.6066C21.9725 16.6066 19.5948 13.6674 18.1494 12.7367C16.6575 11.8549 16.7041 13.1285 16.7041 13.1285V15.7249C16.7041 16.8026 15.8649 17.6843 14.8392 17.6843H13.9067C13.9067 17.6843 8.77815 17.6843 4.6753 11.267C1.45829 6.27035 0.385958 3.0372 0.0129719 1.17569C-0.0802746 0.587845 0.339335 0 0.945438 0Z" fill="white"/>
</svg>
