<svg width="28" height="18" viewBox="0 0 28 18" fill="none" xmlns="http://www.w3.org/2000/svg">
<path d="M0.945438 0.157227C1.92453 0.157227 3.41647 0.157227 4.25569 0.157227C4.6753 0.157227 5.00166 0.45115 5.14153 0.843046C5.56114 2.11671 6.49361 4.90898 7.56595 6.81947C9.01127 9.31782 9.94373 10.2486 10.5498 10.1506C11.1559 10.0036 10.9694 8.33807 10.9694 7.01542C10.9694 5.69277 11.1093 3.43936 10.5032 2.41063L9.57075 0.990008C9.33763 0.647098 9.57075 0.206214 9.94373 0.206214H15.2588C15.7716 0.206214 16.1913 0.647098 16.1913 1.18596V8.28909C16.1913 8.28909 16.4244 9.56275 17.7298 8.2401C19.0353 6.91745 20.434 4.46809 21.5996 1.96975L22.0658 0.794059C22.2057 0.451149 22.532 0.206214 22.905 0.206214H26.3551C27.0079 0.206214 27.4741 0.892034 27.241 1.52887L26.868 2.5576C26.868 2.5576 25.6092 5.2029 24.3037 7.06441C22.9983 8.97491 22.7185 9.41579 22.905 9.90566C23.0915 10.3955 26.4484 13.6777 27.2876 15.2453C27.5207 15.6861 27.7072 16.078 27.8937 16.4209C28.2201 17.0578 27.7538 17.8906 27.0545 17.8906H23.1381C22.8118 17.8906 22.4854 17.6946 22.3455 17.4007L21.9725 16.7639C21.9725 16.7639 19.5948 13.8246 18.1494 12.8939C16.6575 12.0121 16.7041 13.2858 16.7041 13.2858V15.8821C16.7041 16.9598 15.8649 17.8416 14.8392 17.8416H13.9067C13.9067 17.8416 8.77815 17.8416 4.6753 11.4243C1.45829 6.42758 0.385958 3.19443 0.0129719 1.33292C-0.0802746 0.745072 0.339335 0.157227 0.945438 0.157227Z" fill="#022A58"/>
</svg>
