<svg width="24" height="25" viewBox="0 0 24 25" fill="none" xmlns="http://www.w3.org/2000/svg">
<path fill-rule="evenodd" clip-rule="evenodd" d="M5.44951 22.7251L0.907763 23.9161L2.12003 19.4895L1.83475 19.0357C0.633502 17.1258 -0.000909515 14.9185 9.78661e-07 12.6519C0.00263129 6.03801 5.38577 0.657227 12.005 0.657227C15.2101 0.658339 18.223 1.90769 20.4886 4.17511C22.7542 6.44253 24.0012 9.45628 24 12.6616C23.9973 19.2759 18.6142 24.6572 12.0002 24.6572H11.9953C9.84203 24.6563 7.73009 24.0781 5.88766 22.9852L5.44951 22.7251ZM19.2737 16.0943C19.1836 15.9439 18.9431 15.8537 18.5824 15.6731C18.2216 15.4926 16.4481 14.6203 16.1174 14.4999C15.7867 14.3796 15.5461 14.3195 15.3057 14.6803C15.0652 15.0413 14.3739 15.8537 14.1634 16.0943C13.953 16.335 13.7425 16.3651 13.3819 16.1846C13.0212 16.0041 11.8588 15.6233 10.4809 14.3947C9.40843 13.4384 8.68439 12.2577 8.47396 11.8966C8.26354 11.5356 8.45161 11.3404 8.63219 11.1606C8.79446 10.999 8.99294 10.7393 9.17332 10.5289C9.3537 10.3183 9.41379 10.1678 9.53398 9.92734C9.65427 9.68655 9.59417 9.476 9.50393 9.29549C9.4138 9.11497 8.69228 7.33995 8.39172 6.61789C8.09884 5.91474 7.80151 6.01 7.58006 5.99887C7.36984 5.98836 7.12917 5.98613 6.88869 5.98613C6.64822 5.98613 6.25732 6.07634 5.92671 6.43737C5.59599 6.7984 4.66405 7.67085 4.66405 9.44577C4.66405 11.2208 5.95675 12.9355 6.13713 13.1762C6.31751 13.4169 8.68085 17.0593 12.2997 18.6213C13.1604 18.9929 13.8322 19.2148 14.3563 19.3809C15.2204 19.6555 16.0069 19.6167 16.6283 19.5238C17.3215 19.4203 18.7626 18.6516 19.0634 17.8093C19.3639 16.9667 19.3639 16.2447 19.2737 16.0943Z" fill="#022A58"/>
</svg>
