<svg width="255" height="53" viewBox="0 0 735 156" fill="white" xmlns="http://www.w3.org/2000/svg">
<path d="M41.0599 69.5335L63.2537 90.1789M134.996 67.598L111.254 89.5338M63.4435 119.43L72.5023 128.211C72.6949 128.398 72.9525 128.502 73.2208 128.502H100.685C100.957 128.502 101.217 128.395 101.411 128.204L110.297 119.429C110.493 119.235 110.604 118.97 110.604 118.694V91.069C110.604 90.7952 110.495 90.5326 110.301 90.3391L101.411 81.4489C101.218 81.2553 100.955 81.1466 100.681 81.1466H73.0521C72.7783 81.1466 72.5158 81.2553 72.3222 81.4489L63.4321 90.3391C63.2385 90.5326 63.1297 90.7952 63.1297 91.069V118.689C63.1297 118.968 63.2429 119.236 63.4435 119.43ZM5.3138 70.3033L12.0733 76.8555C12.2659 77.0421 12.5236 77.1465 12.7918 77.1465H33.5276C33.7992 77.1465 34.0598 77.0395 34.253 76.8487L40.8823 70.3022C41.0787 70.1083 41.1893 69.8438 41.1893 69.5677V48.7131C41.1893 48.4394 41.0805 48.1768 40.8869 47.9832L34.2538 41.3501C34.0602 41.1565 33.7976 41.0477 33.5238 41.0477H12.6654C12.3917 41.0477 12.1291 41.1565 11.9355 41.3501L5.30234 47.9832C5.10876 48.1768 5 48.4394 5 48.7131V69.5621C5 69.8415 5.11322 70.1089 5.3138 70.3033Z" stroke="white" stroke-width="9"/>
<path d="M330.443 138.144H343.395C344 138.144 344.539 138.382 345.014 138.857C345.489 139.332 345.726 139.871 345.726 140.476V146.952C345.726 147.599 345.489 148.139 345.014 148.571L338.538 155.046C338.106 155.521 337.567 155.759 336.919 155.759H320.729C320.255 155.759 319.823 155.629 319.434 155.37L309.72 148.894C309.548 148.765 309.332 148.463 309.073 147.988C308.814 147.513 308.684 147.167 308.684 146.952V127.524C308.684 126.876 308.9 126.337 309.332 125.905L315.808 119.429C316.283 118.954 316.844 118.717 317.491 118.717H336.919C337.567 118.717 338.106 118.954 338.538 119.429L345.014 125.905C345.489 126.38 345.726 126.919 345.726 127.524C345.726 128.128 345.489 128.689 345.014 129.208C344.539 129.682 343.978 129.92 343.33 129.92C342.726 129.92 342.186 129.661 341.711 129.143L335.948 123.379H318.463L313.347 128.495V145.721L321.442 151.096H335.948L341.064 145.98V142.807H330.443C328.889 142.807 328.112 142.03 328.112 140.476C328.112 138.921 328.889 138.144 330.443 138.144Z" fill="white"/>
<path d="M381.887 138.144C382.146 138.101 382.405 138.101 382.664 138.144H387.78L392.896 133.028V128.495L387.78 123.379H365.179V138.144H381.887ZM393.544 155.046L381.305 142.807H365.179V153.427C365.179 154.982 364.402 155.759 362.848 155.759C361.294 155.759 360.517 154.982 360.517 153.427V121.048C360.517 120.443 360.733 119.904 361.164 119.429C361.639 118.954 362.201 118.717 362.848 118.717H388.752C389.399 118.717 389.939 118.954 390.371 119.429L396.847 125.905C397.322 126.337 397.559 126.876 397.559 127.524V134C397.559 134.647 397.322 135.187 396.847 135.619L390.371 142.095C389.939 142.57 389.399 142.807 388.752 142.807H387.91L396.847 151.809C397.322 152.283 397.559 152.823 397.559 153.427C397.559 154.032 397.322 154.593 396.847 155.111C396.372 155.586 395.811 155.824 395.163 155.824C394.559 155.824 394.019 155.565 393.544 155.046Z" fill="white"/>
<path d="M412.349 127.524C412.349 126.876 412.587 126.337 413.062 125.905L419.538 119.429C419.969 118.954 420.509 118.717 421.157 118.717H440.584C441.232 118.717 441.772 118.954 442.203 119.429L448.679 125.905C449.154 126.337 449.392 126.876 449.392 127.524V146.952C449.392 147.599 449.154 148.139 448.679 148.571L442.203 155.046C441.772 155.521 441.232 155.759 440.584 155.759H421.157C420.509 155.759 419.969 155.521 419.538 155.046L413.062 148.571C412.587 148.139 412.349 147.599 412.349 146.952V127.524ZM417.012 128.495V145.98L422.128 151.096H439.613L444.729 145.98V128.495L439.613 123.379H422.128L417.012 128.495Z" fill="white"/>
<path d="M468.845 121.048V145.98L473.961 151.096H491.446L496.562 145.98V121.048C496.562 119.494 497.339 118.717 498.893 118.717C500.447 118.717 501.224 119.494 501.224 121.048V146.952C501.224 147.599 500.987 148.139 500.512 148.571L494.036 155.046C493.604 155.521 493.065 155.759 492.417 155.759H472.989C472.342 155.759 471.802 155.521 471.37 155.046L464.894 148.571C464.42 148.139 464.182 147.599 464.182 146.952V121.048C464.182 119.494 464.959 118.717 466.513 118.717C468.068 118.717 468.845 119.494 468.845 121.048Z" fill="white"/>
<path d="M520.677 138.144H543.278L548.394 133.028V128.495L543.278 123.379H520.677V138.144ZM516.015 153.427V121.048C516.015 120.443 516.252 119.904 516.727 119.429C517.202 118.954 517.742 118.717 518.346 118.717H544.25C544.897 118.717 545.437 118.954 545.869 119.429L552.345 125.905C552.82 126.337 553.057 126.876 553.057 127.524V134C553.057 134.647 552.82 135.187 552.345 135.619L545.869 142.095C545.437 142.57 544.897 142.807 544.25 142.807H520.677V153.427C520.677 154.982 519.9 155.759 518.346 155.759C516.792 155.759 516.015 154.982 516.015 153.427Z" fill="white"/>
<path d="M127.18 18.5961C127.18 17.2678 127.667 16.1609 128.642 15.2754L141.924 1.99244C142.81 1.01836 143.917 0.531319 145.245 0.531319H185.094C186.422 0.531319 187.529 1.01836 188.415 1.99244L201.698 15.2754C202.672 16.1609 203.159 17.2678 203.159 18.5961V58.445C203.159 59.7733 202.672 60.8802 201.698 61.7657L188.415 75.0487C187.529 76.0227 186.422 76.5098 185.094 76.5098H145.245C143.917 76.5098 142.81 76.0227 141.924 75.0487L128.642 61.7657C127.667 60.8802 127.18 59.7733 127.18 58.445V18.5961ZM136.744 20.5886V56.4525L147.238 66.9461H183.102L193.595 56.4525V20.5886L183.102 10.095H147.238L136.744 20.5886Z" fill="wite"/>
<path d="M241.598 1.99244L271.485 31.7462L301.372 1.99244C302.346 0.929807 303.453 0.398491 304.692 0.398491C305.932 0.398491 307.039 0.929807 308.013 1.99244C309.076 2.96653 309.607 4.07344 309.607 5.31318C309.607 6.55292 309.076 7.65983 308.013 8.63392L278.259 38.5205L308.013 68.4072C309.076 69.3813 309.607 70.4882 309.607 71.7279C309.607 72.9677 309.076 74.1189 308.013 75.1815C307.039 76.1556 305.932 76.6426 304.692 76.6426C303.453 76.6426 302.346 76.1113 301.372 75.0487L271.485 45.2949L241.598 75.0487C240.624 76.1113 239.517 76.6426 238.278 76.6426C237.038 76.6426 235.887 76.1556 234.824 75.1815C233.85 74.1189 233.363 72.9677 233.363 71.7279C233.363 70.4882 233.894 69.3813 234.957 68.4072L264.711 38.5205L234.957 8.63392C233.894 7.65983 233.363 6.55292 233.363 5.31318C233.363 4.07344 233.85 2.96653 234.824 1.99244C235.887 0.929807 237.038 0.398491 238.278 0.398491C239.517 0.398491 240.624 0.929807 241.598 1.99244Z" fill="white"/>
<path d="M382.582 47.1545V71.7279C382.582 74.9158 380.988 76.5098 377.801 76.5098C374.613 76.5098 373.019 74.9158 373.019 71.7279V47.1545L334.631 8.63392C333.568 7.65983 333.037 6.55292 333.037 5.31318C333.037 4.07344 333.524 2.96653 334.498 1.99244C335.561 0.929807 336.712 0.398491 337.952 0.398491C339.191 0.398491 340.298 0.929807 341.272 1.99244L377.801 38.3877L414.329 1.99244C415.303 0.929807 416.41 0.398491 417.649 0.398491C418.889 0.398491 419.996 0.929807 420.97 1.99244C422.033 2.96653 422.564 4.07344 422.564 5.31318C422.564 6.55292 422.033 7.65983 420.97 8.63392L382.582 47.1545Z" fill="white"/>
<path d="M490.757 40.3802H517.323C518.563 40.3802 519.67 40.8672 520.644 41.8413C521.618 42.8154 522.105 43.9223 522.105 45.162V58.445C522.105 59.7733 521.618 60.8802 520.644 61.7657L507.361 75.0487C506.476 76.0227 505.369 76.5098 504.04 76.5098H470.833C469.859 76.5098 468.973 76.2441 468.176 75.7128L448.252 62.4299C447.898 62.1642 447.455 61.5443 446.924 60.5702C446.392 59.5962 446.127 58.8877 446.127 58.445V18.5961C446.127 17.2678 446.57 16.1609 447.455 15.2754L460.738 1.99244C461.712 1.01836 462.863 0.531319 464.192 0.531319H504.04C505.369 0.531319 506.476 1.01836 507.361 1.99244L520.644 15.2754C521.618 16.2495 522.105 17.3564 522.105 18.5961C522.105 19.8359 521.618 20.9871 520.644 22.0497C519.67 23.0238 518.519 23.5108 517.191 23.5108C515.951 23.5108 514.844 22.9795 513.87 21.9169L502.048 10.095H466.184L455.691 20.5886V55.9212L472.294 66.9461H502.048L512.542 56.4525V49.9439H490.757C487.57 49.9439 485.976 48.3499 485.976 45.162C485.976 41.9741 487.57 40.3802 490.757 40.3802Z" fill="white"/>
<path d="M562.006 27.0972H610.356C613.544 27.0972 615.138 28.6912 615.138 31.8791C615.138 35.067 613.544 36.6609 610.356 36.6609H562.006V66.9461H623.639C626.827 66.9461 628.421 68.54 628.421 71.7279C628.421 74.9158 626.827 76.5098 623.639 76.5098H557.224C555.984 76.5098 554.877 76.0227 553.903 75.0487C552.929 74.0746 552.442 72.9677 552.442 71.7279V5.31318C552.442 4.07344 552.929 2.96653 553.903 1.99244C554.877 1.01836 555.984 0.531319 557.224 0.531319H623.639C626.827 0.531319 628.421 2.12527 628.421 5.31318C628.421 8.50109 626.827 10.095 623.639 10.095H562.006V27.0972Z" fill="white"/>
<path d="M658.758 71.7279V5.31318C658.758 1.77106 660.13 0 662.875 0C664.204 0 665.532 0.664147 666.86 1.99244L725.172 60.1718V5.31318C725.172 2.12527 726.766 0.531319 729.954 0.531319C733.142 0.531319 734.736 2.12527 734.736 5.31318V71.7279C734.736 75.27 733.364 77.0411 730.618 77.0411C729.29 77.0411 727.962 76.377 726.634 75.0487L668.321 16.8693V71.7279C668.321 74.9158 666.727 76.5098 663.54 76.5098C660.352 76.5098 658.758 74.9158 658.758 71.7279Z" fill="white"/>
</svg>
