<svg width="30" height="31" viewBox="0 0 30 31" fill="none" xmlns="http://www.w3.org/2000/svg">
<path d="M3.75 4.25H26.25C26.5815 4.25 26.8995 4.3817 27.1339 4.61612C27.3683 4.85054 27.5 5.16848 27.5 5.5V25.5C27.5 25.8315 27.3683 26.1495 27.1339 26.3839C26.8995 26.6183 26.5815 26.75 26.25 26.75H3.75C3.41848 26.75 3.10054 26.6183 2.86612 26.3839C2.6317 26.1495 2.5 25.8315 2.5 25.5V5.5C2.5 5.16848 2.6317 4.85054 2.86612 4.61612C3.10054 4.3817 3.41848 4.25 3.75 4.25ZM15.075 15.1037L7.06 8.2975L5.44125 10.2025L15.0912 18.3962L24.5675 10.1962L22.9325 8.305L15.075 15.1037Z" fill="white"/>
</svg>
